<svg xmlns="http://www.w3.org/2000/svg" xmlns:xlink="http://www.w3.org/1999/xlink" width="500" zoomAndPan="magnify" viewBox="0 0 375 374.999991" height="500" preserveAspectRatio="xMidYMid meet" version="1.0"><defs><clipPath id="79bf25e766"><path d="M 187 288 L 251 288 L 251 361.832031 L 187 361.832031 Z M 187 288 " clip-rule="nonzero"/></clipPath><clipPath id="02b261db60"><path d="M 250 252 L 314.328125 252 L 314.328125 326 L 250 326 Z M 250 252 " clip-rule="nonzero"/></clipPath><clipPath id="af4964cb8a"><path d="M 124 288 L 188 288 L 188 361.832031 L 124 361.832031 Z M 124 288 " clip-rule="nonzero"/></clipPath><clipPath id="d37461f457"><path d="M 262 13.082031 L 307 13.082031 L 307 63 L 262 63 Z M 262 13.082031 " clip-rule="nonzero"/></clipPath></defs><g clip-path="url(#79bf25e766)"><path fill="#cd1e57" d="M 250.832031 325.335938 L 219.199219 343.574219 L 187.578125 361.824219 L 187.578125 288.847656 L 219.199219 307.085938 Z M 250.832031 325.335938 " fill-opacity="1" fill-rule="evenodd"/></g><path fill="#bd2329" d="M 187.578125 288.847656 L 219.199219 270.597656 L 250.832031 252.359375 L 250.832031 325.335938 L 219.199219 307.085938 Z M 187.578125 288.847656 " fill-opacity="1" fill-rule="evenodd"/><g clip-path="url(#02b261db60)"><path fill="#e6422e" d="M 314.082031 288.847656 L 282.460938 307.085938 L 250.832031 325.335938 L 250.832031 252.359375 L 282.460938 270.597656 Z M 314.082031 288.847656 " fill-opacity="1" fill-rule="evenodd"/></g><g clip-path="url(#af4964cb8a)"><path fill="#dc1e7a" d="M 124.316406 325.335938 L 155.949219 343.574219 L 187.578125 361.824219 L 187.578125 288.847656 L 155.949219 307.085938 Z M 124.316406 325.335938 " fill-opacity="1" fill-rule="evenodd"/></g><path fill="#8e2680" d="M 187.578125 288.847656 L 155.949219 307.085938 L 124.316406 325.335938 L 124.316406 252.359375 L 155.949219 270.597656 Z M 187.578125 288.847656 " fill-opacity="1" fill-rule="evenodd"/><path fill="#652a7d" d="M 61.066406 288.847656 L 92.695312 270.597656 L 124.316406 252.359375 L 124.316406 325.335938 L 92.695312 307.085938 Z M 61.066406 288.847656 " fill-opacity="1" fill-rule="evenodd"/><path fill="#27397d" d="M 61.066406 215.871094 L 92.695312 234.109375 L 124.316406 252.359375 L 124.316406 179.382812 L 92.695312 197.628906 Z M 61.066406 215.871094 " fill-opacity="1" fill-rule="evenodd"/><path fill="#232358" d="M 124.316406 252.359375 L 92.695312 270.597656 L 61.066406 288.847656 L 61.066406 215.871094 L 92.695312 234.109375 Z M 124.316406 252.359375 " fill-opacity="1" fill-rule="evenodd"/><path fill="#347cba" d="M 124.316406 179.382812 L 92.695312 197.628906 L 61.066406 215.871094 L 61.066406 142.894531 L 92.695312 161.140625 Z M 124.316406 179.382812 " fill-opacity="1" fill-rule="evenodd"/><path fill="#1ba1a3" d="M 61.066406 142.894531 L 92.695312 161.140625 L 124.316406 179.382812 L 124.316406 106.40625 L 92.695312 124.652344 Z M 61.066406 142.894531 " fill-opacity="1" fill-rule="evenodd"/><path fill="#036635" d="M 187.578125 142.894531 L 155.949219 161.140625 L 124.316406 179.382812 L 124.316406 106.40625 L 155.949219 124.652344 Z M 187.578125 142.894531 " fill-opacity="1" fill-rule="evenodd"/><path fill="#8cc540" d="M 187.578125 142.894531 L 219.199219 161.140625 L 250.832031 179.382812 L 250.832031 106.40625 L 219.199219 124.652344 Z M 187.578125 142.894531 " fill-opacity="1" fill-rule="evenodd"/><path fill="#138f46" d="M 101.882812 70.6875 L 133.511719 52.441406 L 165.132812 34.199219 L 165.132812 107.175781 L 133.511719 88.929688 Z M 101.882812 70.6875 " fill-opacity="1" fill-rule="evenodd"/><path fill="#dddc20" d="M 188.851562 68.9375 L 211.769531 55.722656 L 234.675781 42.507812 L 234.675781 95.375 L 211.769531 82.160156 Z M 188.851562 68.9375 " fill-opacity="1" fill-rule="evenodd"/><path fill="#fccc0f" d="M 313.527344 122.636719 L 299.464844 114.519531 L 285.394531 106.40625 L 285.394531 138.863281 L 299.464844 130.75 Z M 313.527344 122.636719 " fill-opacity="1" fill-rule="evenodd"/><g clip-path="url(#d37461f457)"><path fill="#fcee1f" d="M 306.859375 37.828125 L 284.640625 25.453125 L 262.425781 13.082031 L 262.425781 62.582031 L 284.640625 50.210938 Z M 306.859375 37.828125 " fill-opacity="1" fill-rule="evenodd"/></g></svg>