<svg xmlns="http://www.w3.org/2000/svg" xmlns:xlink="http://www.w3.org/1999/xlink" width="500" zoomAndPan="magnify" viewBox="0 0 375 374.999991" height="500" preserveAspectRatio="xMidYMid meet" version="1.0"><defs><g/><clipPath id="91747dacd0"><path d="M 187 187 L 215 187 L 215 219.410156 L 187 219.410156 Z M 187 187 " clip-rule="nonzero"/></clipPath><clipPath id="8130e7d2fc"><path d="M 214 172 L 242.253906 172 L 242.253906 204 L 214 204 Z M 214 172 " clip-rule="nonzero"/></clipPath><clipPath id="e3cdddb5f5"><path d="M 160 187 L 188 187 L 188 219.410156 L 160 219.410156 Z M 160 187 " clip-rule="nonzero"/></clipPath><clipPath id="5960d98b7e"><path d="M 132.753906 172 L 161 172 L 161 204 L 132.753906 204 Z M 132.753906 172 " clip-rule="nonzero"/></clipPath><clipPath id="8a99695356"><path d="M 132.753906 140 L 161 140 L 161 173 L 132.753906 173 Z M 132.753906 140 " clip-rule="nonzero"/></clipPath><clipPath id="3d9a2ab927"><path d="M 132.753906 156 L 161 156 L 161 188 L 132.753906 188 Z M 132.753906 156 " clip-rule="nonzero"/></clipPath><clipPath id="9857a0e9ac"><path d="M 132.753906 124 L 161 124 L 161 157 L 132.753906 157 Z M 132.753906 124 " clip-rule="nonzero"/></clipPath><clipPath id="5ca6f0d451"><path d="M 132.753906 109 L 161 109 L 161 141 L 132.753906 141 Z M 132.753906 109 " clip-rule="nonzero"/></clipPath><clipPath id="bbc32bb763"><path d="M 219 68.660156 L 240 68.660156 L 240 91 L 219 91 Z M 219 68.660156 " clip-rule="nonzero"/></clipPath><clipPath id="b80da8c9ed"><rect x="0" width="245" y="0" height="48"/></clipPath><clipPath id="ed6d27cb3c"><rect x="0" width="221" y="0" height="14"/></clipPath></defs><g clip-path="url(#91747dacd0)"><path fill="#cd1e57" d="M 214.824219 203.636719 L 201.164062 211.519531 L 187.503906 219.40625 L 187.503906 187.863281 L 201.164062 195.746094 Z M 214.824219 203.636719 " fill-opacity="1" fill-rule="evenodd"/></g><path fill="#bd2329" d="M 187.503906 187.863281 L 214.824219 172.089844 L 214.824219 203.636719 L 201.164062 195.746094 Z M 187.503906 187.863281 " fill-opacity="1" fill-rule="evenodd"/><g clip-path="url(#8130e7d2fc)"><path fill="#e6422e" d="M 242.144531 187.863281 L 228.488281 195.746094 L 214.824219 203.636719 L 214.824219 172.089844 L 228.488281 179.976562 Z M 242.144531 187.863281 " fill-opacity="1" fill-rule="evenodd"/></g><g clip-path="url(#e3cdddb5f5)"><path fill="#dc1e7a" d="M 160.183594 203.636719 L 173.84375 211.519531 L 187.503906 219.40625 L 187.503906 187.863281 L 173.84375 195.746094 Z M 160.183594 203.636719 " fill-opacity="1" fill-rule="evenodd"/></g><path fill="#8e2680" d="M 187.503906 187.863281 L 173.84375 195.746094 L 160.183594 203.636719 L 160.183594 172.089844 Z M 187.503906 187.863281 " fill-opacity="1" fill-rule="evenodd"/><g clip-path="url(#5960d98b7e)"><path fill="#652a7d" d="M 132.863281 187.863281 L 160.183594 172.089844 L 160.183594 203.636719 L 146.523438 195.746094 Z M 132.863281 187.863281 " fill-opacity="1" fill-rule="evenodd"/></g><g clip-path="url(#8a99695356)"><path fill="#27397d" d="M 132.863281 156.316406 L 160.183594 172.089844 L 160.183594 140.546875 L 146.523438 148.433594 Z M 132.863281 156.316406 " fill-opacity="1" fill-rule="evenodd"/></g><g clip-path="url(#3d9a2ab927)"><path fill="#232358" d="M 160.183594 172.089844 L 132.863281 187.863281 L 132.863281 156.316406 Z M 160.183594 172.089844 " fill-opacity="1" fill-rule="evenodd"/></g><g clip-path="url(#9857a0e9ac)"><path fill="#347cba" d="M 160.183594 140.546875 L 146.523438 148.433594 L 132.863281 156.316406 L 132.863281 124.773438 Z M 160.183594 140.546875 " fill-opacity="1" fill-rule="evenodd"/></g><g clip-path="url(#5ca6f0d451)"><path fill="#1ba1a3" d="M 132.863281 124.773438 L 160.183594 140.546875 L 160.183594 109 L 146.523438 116.890625 Z M 132.863281 124.773438 " fill-opacity="1" fill-rule="evenodd"/></g><path fill="#036635" d="M 187.503906 124.773438 L 160.183594 140.546875 L 160.183594 109 L 173.84375 116.890625 Z M 187.503906 124.773438 " fill-opacity="1" fill-rule="evenodd"/><path fill="#8cc540" d="M 187.503906 124.773438 L 214.824219 140.546875 L 214.824219 109 L 201.164062 116.890625 Z M 187.503906 124.773438 " fill-opacity="1" fill-rule="evenodd"/><path fill="#138f46" d="M 150.492188 93.5625 L 177.8125 77.789062 L 177.8125 109.335938 L 164.152344 101.445312 Z M 150.492188 93.5625 " fill-opacity="1" fill-rule="evenodd"/><path fill="#dddc20" d="M 188.054688 92.804688 L 197.953125 87.09375 L 207.847656 81.378906 L 207.847656 104.234375 L 197.953125 98.519531 Z M 188.054688 92.804688 " fill-opacity="1" fill-rule="evenodd"/><path fill="#fccc0f" d="M 241.90625 116.019531 L 235.832031 112.507812 L 229.753906 109 L 229.753906 123.03125 L 235.832031 119.523438 Z M 241.90625 116.019531 " fill-opacity="1" fill-rule="evenodd"/><g clip-path="url(#bbc32bb763)"><path fill="#fcee1f" d="M 239.027344 79.359375 L 229.429688 74.007812 L 219.835938 68.660156 L 219.835938 90.058594 L 229.429688 84.710938 Z M 239.027344 79.359375 " fill-opacity="1" fill-rule="evenodd"/></g><g transform="matrix(1, 0, 0, 1, 66, 222)"><g clip-path="url(#b80da8c9ed)"><g fill="#23242c" fill-opacity="1"><g transform="translate(0.966727, 37.280437)"><g><path d="M 3.546875 -26.4375 L 8.453125 -26.4375 L 8.453125 -4.15625 L 22.28125 -4.15625 L 22.28125 0 L 3.546875 0 Z M 3.546875 -26.4375 "/></g></g></g><g fill="#23242c" fill-opacity="1"><g transform="translate(25.514349, 37.280437)"><g><path d="M 23.375 -4.109375 L 23.375 0 L 3.546875 0 L 3.546875 -26.4375 L 22.84375 -26.4375 L 22.84375 -22.3125 L 8.453125 -22.3125 L 8.453125 -15.453125 L 21.21875 -15.453125 L 21.21875 -11.40625 L 8.453125 -11.40625 L 8.453125 -4.109375 Z M 23.375 -4.109375 "/></g></g></g><g fill="#23242c" fill-opacity="1"><g transform="translate(52.743318, 37.280437)"><g><path d="M 20.203125 0 L 13.03125 -10.046875 L 5.921875 0 L 0.34375 0 L 10.15625 -13.484375 L 0.875 -26.4375 L 6.421875 -26.4375 L 13.1875 -17.03125 L 19.859375 -26.4375 L 25.1875 -26.4375 L 15.9375 -13.671875 L 25.875 0 Z M 20.203125 0 "/></g></g></g><g fill="#23242c" fill-opacity="1"><g transform="translate(80.840887, 37.280437)"><g><path d="M 3.546875 -26.4375 L 8.453125 -26.4375 L 8.453125 0 L 3.546875 0 Z M 3.546875 -26.4375 "/></g></g></g><g fill="#23242c" fill-opacity="1"><g transform="translate(94.814213, 37.280437)"><g><path d="M 11.75 0.375 C 9.707031 0.375 7.734375 0.0859375 5.828125 -0.484375 C 3.929688 -1.066406 2.429688 -1.835938 1.328125 -2.796875 L 3.015625 -6.609375 C 4.097656 -5.753906 5.425781 -5.054688 7 -4.515625 C 8.570312 -3.972656 10.15625 -3.703125 11.75 -3.703125 C 13.707031 -3.703125 15.171875 -4.015625 16.140625 -4.640625 C 17.109375 -5.273438 17.59375 -6.109375 17.59375 -7.140625 C 17.59375 -7.890625 17.320312 -8.507812 16.78125 -9 C 16.238281 -9.5 15.550781 -9.882812 14.71875 -10.15625 C 13.894531 -10.4375 12.765625 -10.753906 11.328125 -11.109375 C 9.316406 -11.585938 7.6875 -12.0625 6.4375 -12.53125 C 5.1875 -13.007812 4.113281 -13.757812 3.21875 -14.78125 C 2.332031 -15.800781 1.890625 -17.179688 1.890625 -18.921875 C 1.890625 -20.378906 2.285156 -21.707031 3.078125 -22.90625 C 3.867188 -24.101562 5.0625 -25.050781 6.65625 -25.75 C 8.257812 -26.457031 10.21875 -26.8125 12.53125 -26.8125 C 14.144531 -26.8125 15.734375 -26.609375 17.296875 -26.203125 C 18.859375 -25.804688 20.207031 -25.226562 21.34375 -24.46875 L 19.796875 -20.65625 C 18.628906 -21.332031 17.414062 -21.847656 16.15625 -22.203125 C 14.90625 -22.554688 13.6875 -22.734375 12.5 -22.734375 C 10.5625 -22.734375 9.117188 -22.40625 8.171875 -21.75 C 7.234375 -21.09375 6.765625 -20.222656 6.765625 -19.140625 C 6.765625 -18.390625 7.035156 -17.773438 7.578125 -17.296875 C 8.117188 -16.816406 8.800781 -16.4375 9.625 -16.15625 C 10.457031 -15.882812 11.59375 -15.570312 13.03125 -15.21875 C 14.988281 -14.769531 16.597656 -14.296875 17.859375 -13.796875 C 19.117188 -13.304688 20.195312 -12.554688 21.09375 -11.546875 C 21.988281 -10.546875 22.4375 -9.191406 22.4375 -7.484375 C 22.4375 -6.015625 22.035156 -4.6875 21.234375 -3.5 C 20.441406 -2.320312 19.238281 -1.378906 17.625 -0.671875 C 16.019531 0.0234375 14.0625 0.375 11.75 0.375 Z M 11.75 0.375 "/></g></g></g><g fill="#23242c" fill-opacity="1"><g transform="translate(120.4948, 37.280437)"><g><path d="M 15.78125 0.375 C 13.113281 0.375 10.703125 -0.207031 8.546875 -1.375 C 6.398438 -2.550781 4.710938 -4.171875 3.484375 -6.234375 C 2.265625 -8.296875 1.65625 -10.625 1.65625 -13.21875 C 1.65625 -15.8125 2.269531 -18.140625 3.5 -20.203125 C 4.738281 -22.265625 6.4375 -23.878906 8.59375 -25.046875 C 10.75 -26.222656 13.160156 -26.8125 15.828125 -26.8125 C 17.992188 -26.8125 19.96875 -26.429688 21.75 -25.671875 C 23.539062 -24.921875 25.050781 -23.828125 26.28125 -22.390625 L 23.109375 -19.40625 C 21.203125 -21.476562 18.847656 -22.515625 16.046875 -22.515625 C 14.234375 -22.515625 12.609375 -22.113281 11.171875 -21.3125 C 9.742188 -20.519531 8.625 -19.421875 7.8125 -18.015625 C 7.007812 -16.609375 6.609375 -15.007812 6.609375 -13.21875 C 6.609375 -11.425781 7.007812 -9.828125 7.8125 -8.421875 C 8.625 -7.015625 9.742188 -5.910156 11.171875 -5.109375 C 12.609375 -4.316406 14.234375 -3.921875 16.046875 -3.921875 C 18.847656 -3.921875 21.203125 -4.96875 23.109375 -7.0625 L 26.28125 -4.046875 C 25.050781 -2.609375 23.535156 -1.507812 21.734375 -0.75 C 19.929688 0 17.945312 0.375 15.78125 0.375 Z M 15.78125 0.375 "/></g></g></g><g fill="#23242c" fill-opacity="1"><g transform="translate(149.876387, 37.280437)"><g><path d="M 15.90625 0.375 C 13.207031 0.375 10.773438 -0.207031 8.609375 -1.375 C 6.441406 -2.550781 4.738281 -4.175781 3.5 -6.25 C 2.269531 -8.320312 1.65625 -10.644531 1.65625 -13.21875 C 1.65625 -15.78125 2.269531 -18.097656 3.5 -20.171875 C 4.738281 -22.253906 6.441406 -23.878906 8.609375 -25.046875 C 10.773438 -26.222656 13.207031 -26.8125 15.90625 -26.8125 C 18.59375 -26.8125 21.019531 -26.222656 23.1875 -25.046875 C 25.351562 -23.878906 27.050781 -22.265625 28.28125 -20.203125 C 29.519531 -18.140625 30.140625 -15.8125 30.140625 -13.21875 C 30.140625 -10.625 29.519531 -8.296875 28.28125 -6.234375 C 27.050781 -4.171875 25.351562 -2.550781 23.1875 -1.375 C 21.019531 -0.207031 18.59375 0.375 15.90625 0.375 Z M 15.90625 -3.921875 C 17.664062 -3.921875 19.25 -4.316406 20.65625 -5.109375 C 22.0625 -5.910156 23.164062 -7.019531 23.96875 -8.4375 C 24.78125 -9.863281 25.1875 -11.457031 25.1875 -13.21875 C 25.1875 -14.976562 24.78125 -16.566406 23.96875 -17.984375 C 23.164062 -19.410156 22.0625 -20.519531 20.65625 -21.3125 C 19.25 -22.113281 17.664062 -22.515625 15.90625 -22.515625 C 14.132812 -22.515625 12.546875 -22.113281 11.140625 -21.3125 C 9.734375 -20.519531 8.625 -19.410156 7.8125 -17.984375 C 7.007812 -16.566406 6.609375 -14.976562 6.609375 -13.21875 C 6.609375 -11.457031 7.007812 -9.863281 7.8125 -8.4375 C 8.625 -7.019531 9.734375 -5.910156 11.140625 -5.109375 C 12.546875 -4.316406 14.132812 -3.921875 15.90625 -3.921875 Z M 15.90625 -3.921875 "/></g></g></g><g fill="#23242c" fill-opacity="1"><g transform="translate(183.600989, 37.280437)"><g><path d="M 3.546875 -26.4375 L 15.109375 -26.4375 C 17.929688 -26.4375 20.4375 -25.890625 22.625 -24.796875 C 24.8125 -23.703125 26.507812 -22.148438 27.71875 -20.140625 C 28.925781 -18.140625 29.53125 -15.832031 29.53125 -13.21875 C 29.53125 -10.601562 28.925781 -8.289062 27.71875 -6.28125 C 26.507812 -4.28125 24.8125 -2.734375 22.625 -1.640625 C 20.4375 -0.546875 17.929688 0 15.109375 0 L 3.546875 0 Z M 14.875 -4.15625 C 16.8125 -4.15625 18.515625 -4.523438 19.984375 -5.265625 C 21.460938 -6.003906 22.597656 -7.0625 23.390625 -8.4375 C 24.179688 -9.8125 24.578125 -11.40625 24.578125 -13.21875 C 24.578125 -15.03125 24.179688 -16.617188 23.390625 -17.984375 C 22.597656 -19.359375 21.460938 -20.414062 19.984375 -21.15625 C 18.515625 -21.90625 16.8125 -22.28125 14.875 -22.28125 L 8.453125 -22.28125 L 8.453125 -4.15625 Z M 14.875 -4.15625 "/></g></g></g><g fill="#23242c" fill-opacity="1"><g transform="translate(216.721343, 37.280437)"><g><path d="M 23.375 -4.109375 L 23.375 0 L 3.546875 0 L 3.546875 -26.4375 L 22.84375 -26.4375 L 22.84375 -22.3125 L 8.453125 -22.3125 L 8.453125 -15.453125 L 21.21875 -15.453125 L 21.21875 -11.40625 L 8.453125 -11.40625 L 8.453125 -4.109375 Z M 23.375 -4.109375 "/></g></g></g></g></g><g transform="matrix(1, 0, 0, 1, 79, 272)"><g clip-path="url(#ed6d27cb3c)"><g fill="#23242c" fill-opacity="1"><g transform="translate(1.288336, 10.209019)"><g><path d="M 4.6875 0.109375 C 3.894531 0.109375 3.175781 -0.0625 2.53125 -0.40625 C 1.894531 -0.757812 1.394531 -1.238281 1.03125 -1.84375 C 0.675781 -2.457031 0.5 -3.148438 0.5 -3.921875 C 0.5 -4.691406 0.679688 -5.378906 1.046875 -5.984375 C 1.410156 -6.597656 1.910156 -7.078125 2.546875 -7.421875 C 3.179688 -7.773438 3.894531 -7.953125 4.6875 -7.953125 C 5.332031 -7.953125 5.921875 -7.835938 6.453125 -7.609375 C 6.984375 -7.390625 7.429688 -7.066406 7.796875 -6.640625 L 6.859375 -5.765625 C 6.285156 -6.367188 5.585938 -6.671875 4.765625 -6.671875 C 4.222656 -6.671875 3.738281 -6.550781 3.3125 -6.3125 C 2.882812 -6.082031 2.550781 -5.757812 2.3125 -5.34375 C 2.070312 -4.925781 1.953125 -4.453125 1.953125 -3.921875 C 1.953125 -3.390625 2.070312 -2.914062 2.3125 -2.5 C 2.550781 -2.082031 2.882812 -1.753906 3.3125 -1.515625 C 3.738281 -1.285156 4.222656 -1.171875 4.765625 -1.171875 C 5.585938 -1.171875 6.285156 -1.476562 6.859375 -2.09375 L 7.796875 -1.203125 C 7.429688 -0.773438 6.976562 -0.445312 6.4375 -0.21875 C 5.90625 0 5.320312 0.109375 4.6875 0.109375 Z M 4.6875 0.109375 "/></g></g></g><g fill="#23242c" fill-opacity="1"><g transform="translate(12.976178, 10.209019)"><g><path d="M 6.9375 -1.21875 L 6.9375 0 L 1.046875 0 L 1.046875 -7.84375 L 6.78125 -7.84375 L 6.78125 -6.625 L 2.515625 -6.625 L 2.515625 -4.578125 L 6.296875 -4.578125 L 6.296875 -3.390625 L 2.515625 -3.390625 L 2.515625 -1.21875 Z M 6.9375 -1.21875 "/></g></g></g><g fill="#23242c" fill-opacity="1"><g transform="translate(24.025476, 10.209019)"><g><path d="M 6.1875 0 L 4.578125 -2.296875 C 4.515625 -2.285156 4.414062 -2.28125 4.28125 -2.28125 L 2.515625 -2.28125 L 2.515625 0 L 1.046875 0 L 1.046875 -7.84375 L 4.28125 -7.84375 C 4.957031 -7.84375 5.546875 -7.726562 6.046875 -7.5 C 6.554688 -7.28125 6.945312 -6.960938 7.21875 -6.546875 C 7.488281 -6.128906 7.625 -5.628906 7.625 -5.046875 C 7.625 -4.460938 7.476562 -3.957031 7.1875 -3.53125 C 6.894531 -3.101562 6.484375 -2.785156 5.953125 -2.578125 L 7.75 0 Z M 6.15625 -5.046875 C 6.15625 -5.546875 5.988281 -5.929688 5.65625 -6.203125 C 5.332031 -6.472656 4.851562 -6.609375 4.21875 -6.609375 L 2.515625 -6.609375 L 2.515625 -3.484375 L 4.21875 -3.484375 C 4.851562 -3.484375 5.332031 -3.617188 5.65625 -3.890625 C 5.988281 -4.160156 6.15625 -4.546875 6.15625 -5.046875 Z M 6.15625 -5.046875 "/></g></g></g><g fill="#23242c" fill-opacity="1"><g transform="translate(35.758124, 10.209019)"><g><path d="M 2.640625 -6.609375 L 0.046875 -6.609375 L 0.046875 -7.84375 L 6.703125 -7.84375 L 6.703125 -6.609375 L 4.09375 -6.609375 L 4.09375 0 L 2.640625 0 Z M 2.640625 -6.609375 "/></g></g></g><g fill="#23242c" fill-opacity="1"><g transform="translate(46.04566, 10.209019)"><g><path d="M 1.046875 -7.84375 L 2.515625 -7.84375 L 2.515625 0 L 1.046875 0 Z M 1.046875 -7.84375 "/></g></g></g><g fill="#23242c" fill-opacity="1"><g transform="translate(53.162906, 10.209019)"><g><path d="M 2.515625 -6.625 L 2.515625 -4.234375 L 6.296875 -4.234375 L 6.296875 -3 L 2.515625 -3 L 2.515625 0 L 1.046875 0 L 1.046875 -7.84375 L 6.78125 -7.84375 L 6.78125 -6.625 Z M 2.515625 -6.625 "/></g></g></g><g fill="#23242c" fill-opacity="1"><g transform="translate(63.842527, 10.209019)"><g><path d="M 1.046875 -7.84375 L 2.515625 -7.84375 L 2.515625 0 L 1.046875 0 Z M 1.046875 -7.84375 "/></g></g></g><g fill="#23242c" fill-opacity="1"><g transform="translate(70.959772, 10.209019)"><g><path d="M 4.6875 0.109375 C 3.894531 0.109375 3.175781 -0.0625 2.53125 -0.40625 C 1.894531 -0.757812 1.394531 -1.238281 1.03125 -1.84375 C 0.675781 -2.457031 0.5 -3.148438 0.5 -3.921875 C 0.5 -4.691406 0.679688 -5.378906 1.046875 -5.984375 C 1.410156 -6.597656 1.910156 -7.078125 2.546875 -7.421875 C 3.179688 -7.773438 3.894531 -7.953125 4.6875 -7.953125 C 5.332031 -7.953125 5.921875 -7.835938 6.453125 -7.609375 C 6.984375 -7.390625 7.429688 -7.066406 7.796875 -6.640625 L 6.859375 -5.765625 C 6.285156 -6.367188 5.585938 -6.671875 4.765625 -6.671875 C 4.222656 -6.671875 3.738281 -6.550781 3.3125 -6.3125 C 2.882812 -6.082031 2.550781 -5.757812 2.3125 -5.34375 C 2.070312 -4.925781 1.953125 -4.453125 1.953125 -3.921875 C 1.953125 -3.390625 2.070312 -2.914062 2.3125 -2.5 C 2.550781 -2.082031 2.882812 -1.753906 3.3125 -1.515625 C 3.738281 -1.285156 4.222656 -1.171875 4.765625 -1.171875 C 5.585938 -1.171875 6.285156 -1.476562 6.859375 -2.09375 L 7.796875 -1.203125 C 7.429688 -0.773438 6.976562 -0.445312 6.4375 -0.21875 C 5.90625 0 5.320312 0.109375 4.6875 0.109375 Z M 4.6875 0.109375 "/></g></g></g><g fill="#23242c" fill-opacity="1"><g transform="translate(82.647615, 10.209019)"><g><path d="M 6.140625 -1.8125 L 2.21875 -1.8125 L 1.4375 0 L -0.0625 0 L 3.46875 -7.84375 L 4.90625 -7.84375 L 8.453125 0 L 6.921875 0 Z M 5.65625 -2.953125 L 4.171875 -6.390625 L 2.71875 -2.953125 Z M 5.65625 -2.953125 "/></g></g></g><g fill="#23242c" fill-opacity="1"><g transform="translate(94.581905, 10.209019)"><g><path d="M 2.640625 -6.609375 L 0.046875 -6.609375 L 0.046875 -7.84375 L 6.703125 -7.84375 L 6.703125 -6.609375 L 4.09375 -6.609375 L 4.09375 0 L 2.640625 0 Z M 2.640625 -6.609375 "/></g></g></g><g fill="#23242c" fill-opacity="1"><g transform="translate(104.86944, 10.209019)"><g><path d="M 6.9375 -1.21875 L 6.9375 0 L 1.046875 0 L 1.046875 -7.84375 L 6.78125 -7.84375 L 6.78125 -6.625 L 2.515625 -6.625 L 2.515625 -4.578125 L 6.296875 -4.578125 L 6.296875 -3.390625 L 2.515625 -3.390625 L 2.515625 -1.21875 Z M 6.9375 -1.21875 "/></g></g></g><g fill="#23242c" fill-opacity="1"><g transform="translate(115.918738, 10.209019)"><g><path d="M 3.484375 0.109375 C 2.878906 0.109375 2.296875 0.0234375 1.734375 -0.140625 C 1.171875 -0.316406 0.722656 -0.546875 0.390625 -0.828125 L 0.890625 -1.953125 C 1.210938 -1.703125 1.609375 -1.492188 2.078125 -1.328125 C 2.546875 -1.171875 3.015625 -1.09375 3.484375 -1.09375 C 4.066406 -1.09375 4.5 -1.1875 4.78125 -1.375 C 5.070312 -1.5625 5.21875 -1.8125 5.21875 -2.125 C 5.21875 -2.34375 5.132812 -2.523438 4.96875 -2.671875 C 4.8125 -2.816406 4.609375 -2.929688 4.359375 -3.015625 C 4.117188 -3.097656 3.785156 -3.191406 3.359375 -3.296875 C 2.765625 -3.429688 2.28125 -3.570312 1.90625 -3.71875 C 1.539062 -3.863281 1.222656 -4.085938 0.953125 -4.390625 C 0.691406 -4.691406 0.5625 -5.097656 0.5625 -5.609375 C 0.5625 -6.046875 0.675781 -6.441406 0.90625 -6.796875 C 1.144531 -7.148438 1.5 -7.429688 1.96875 -7.640625 C 2.445312 -7.847656 3.03125 -7.953125 3.71875 -7.953125 C 4.195312 -7.953125 4.664062 -7.890625 5.125 -7.765625 C 5.59375 -7.648438 5.992188 -7.484375 6.328125 -7.265625 L 5.875 -6.125 C 5.53125 -6.332031 5.171875 -6.488281 4.796875 -6.59375 C 4.421875 -6.695312 4.054688 -6.75 3.703125 -6.75 C 3.128906 -6.75 2.703125 -6.648438 2.421875 -6.453125 C 2.140625 -6.253906 2 -6 2 -5.6875 C 2 -5.457031 2.078125 -5.269531 2.234375 -5.125 C 2.398438 -4.988281 2.601562 -4.878906 2.84375 -4.796875 C 3.09375 -4.710938 3.429688 -4.617188 3.859375 -4.515625 C 4.441406 -4.378906 4.921875 -4.238281 5.296875 -4.09375 C 5.671875 -3.945312 5.988281 -3.722656 6.25 -3.421875 C 6.519531 -3.128906 6.65625 -2.726562 6.65625 -2.21875 C 6.65625 -1.78125 6.535156 -1.382812 6.296875 -1.03125 C 6.066406 -0.6875 5.710938 -0.410156 5.234375 -0.203125 C 4.753906 0.00390625 4.171875 0.109375 3.484375 0.109375 Z M 3.484375 0.109375 "/></g></g></g><g fill="#23242c" fill-opacity="1"><g transform="translate(126.508737, 10.209019)"><g/></g></g><g fill="#23242c" fill-opacity="1"><g transform="translate(133.144274, 10.209019)"><g><path d="M 4.6875 0.109375 C 3.894531 0.109375 3.175781 -0.0625 2.53125 -0.40625 C 1.894531 -0.757812 1.394531 -1.238281 1.03125 -1.84375 C 0.675781 -2.457031 0.5 -3.148438 0.5 -3.921875 C 0.5 -4.691406 0.679688 -5.378906 1.046875 -5.984375 C 1.410156 -6.597656 1.910156 -7.078125 2.546875 -7.421875 C 3.179688 -7.773438 3.894531 -7.953125 4.6875 -7.953125 C 5.332031 -7.953125 5.921875 -7.835938 6.453125 -7.609375 C 6.984375 -7.390625 7.429688 -7.066406 7.796875 -6.640625 L 6.859375 -5.765625 C 6.285156 -6.367188 5.585938 -6.671875 4.765625 -6.671875 C 4.222656 -6.671875 3.738281 -6.550781 3.3125 -6.3125 C 2.882812 -6.082031 2.550781 -5.757812 2.3125 -5.34375 C 2.070312 -4.925781 1.953125 -4.453125 1.953125 -3.921875 C 1.953125 -3.390625 2.070312 -2.914062 2.3125 -2.5 C 2.550781 -2.082031 2.882812 -1.753906 3.3125 -1.515625 C 3.738281 -1.285156 4.222656 -1.171875 4.765625 -1.171875 C 5.585938 -1.171875 6.285156 -1.476562 6.859375 -2.09375 L 7.796875 -1.203125 C 7.429688 -0.773438 6.976562 -0.445312 6.4375 -0.21875 C 5.90625 0 5.320312 0.109375 4.6875 0.109375 Z M 4.6875 0.109375 "/></g></g></g><g fill="#23242c" fill-opacity="1"><g transform="translate(144.832117, 10.209019)"><g><path d="M 4.71875 0.109375 C 3.914062 0.109375 3.191406 -0.0625 2.546875 -0.40625 C 1.910156 -0.757812 1.410156 -1.242188 1.046875 -1.859375 C 0.679688 -2.472656 0.5 -3.160156 0.5 -3.921875 C 0.5 -4.679688 0.679688 -5.367188 1.046875 -5.984375 C 1.410156 -6.597656 1.910156 -7.078125 2.546875 -7.421875 C 3.191406 -7.773438 3.914062 -7.953125 4.71875 -7.953125 C 5.519531 -7.953125 6.238281 -7.773438 6.875 -7.421875 C 7.519531 -7.078125 8.023438 -6.597656 8.390625 -5.984375 C 8.753906 -5.378906 8.9375 -4.691406 8.9375 -3.921875 C 8.9375 -3.148438 8.753906 -2.457031 8.390625 -1.84375 C 8.023438 -1.238281 7.519531 -0.757812 6.875 -0.40625 C 6.238281 -0.0625 5.519531 0.109375 4.71875 0.109375 Z M 4.71875 -1.171875 C 5.238281 -1.171875 5.707031 -1.285156 6.125 -1.515625 C 6.539062 -1.753906 6.867188 -2.082031 7.109375 -2.5 C 7.347656 -2.925781 7.46875 -3.398438 7.46875 -3.921875 C 7.46875 -4.441406 7.347656 -4.910156 7.109375 -5.328125 C 6.867188 -5.753906 6.539062 -6.082031 6.125 -6.3125 C 5.707031 -6.550781 5.238281 -6.671875 4.71875 -6.671875 C 4.195312 -6.671875 3.722656 -6.550781 3.296875 -6.3125 C 2.878906 -6.082031 2.550781 -5.753906 2.3125 -5.328125 C 2.070312 -4.910156 1.953125 -4.441406 1.953125 -3.921875 C 1.953125 -3.398438 2.070312 -2.925781 2.3125 -2.5 C 2.550781 -2.082031 2.878906 -1.753906 3.296875 -1.515625 C 3.722656 -1.285156 4.195312 -1.171875 4.71875 -1.171875 Z M 4.71875 -1.171875 "/></g></g></g><g fill="#23242c" fill-opacity="1"><g transform="translate(157.808235, 10.209019)"><g><path d="M 8.25 0 L 8.25 -5.203125 L 5.671875 -0.890625 L 5.015625 -0.890625 L 2.4375 -5.125 L 2.4375 0 L 1.046875 0 L 1.046875 -7.84375 L 2.25 -7.84375 L 5.359375 -2.640625 L 8.421875 -7.84375 L 9.625 -7.84375 L 9.640625 0 Z M 8.25 0 "/></g></g></g><g fill="#23242c" fill-opacity="1"><g transform="translate(172.050232, 10.209019)"><g><path d="M 4.28125 -7.84375 C 4.957031 -7.84375 5.546875 -7.726562 6.046875 -7.5 C 6.554688 -7.28125 6.945312 -6.960938 7.21875 -6.546875 C 7.488281 -6.128906 7.625 -5.628906 7.625 -5.046875 C 7.625 -4.484375 7.488281 -3.988281 7.21875 -3.5625 C 6.945312 -3.144531 6.554688 -2.820312 6.046875 -2.59375 C 5.546875 -2.375 4.957031 -2.265625 4.28125 -2.265625 L 2.515625 -2.265625 L 2.515625 0 L 1.046875 0 L 1.046875 -7.84375 Z M 4.21875 -3.5 C 4.851562 -3.5 5.332031 -3.628906 5.65625 -3.890625 C 5.988281 -4.160156 6.15625 -4.546875 6.15625 -5.046875 C 6.15625 -5.546875 5.988281 -5.929688 5.65625 -6.203125 C 5.332031 -6.472656 4.851562 -6.609375 4.21875 -6.609375 L 2.515625 -6.609375 L 2.515625 -3.5 Z M 4.21875 -3.5 "/></g></g></g><g fill="#23242c" fill-opacity="1"><g transform="translate(183.726876, 10.209019)"><g><path d="M 6.140625 -1.8125 L 2.21875 -1.8125 L 1.4375 0 L -0.0625 0 L 3.46875 -7.84375 L 4.90625 -7.84375 L 8.453125 0 L 6.921875 0 Z M 5.65625 -2.953125 L 4.171875 -6.390625 L 2.71875 -2.953125 Z M 5.65625 -2.953125 "/></g></g></g><g fill="#23242c" fill-opacity="1"><g transform="translate(195.661166, 10.209019)"><g><path d="M 8.015625 -7.84375 L 8.015625 0 L 6.828125 0 L 2.5 -5.3125 L 2.5 0 L 1.046875 0 L 1.046875 -7.84375 L 2.25 -7.84375 L 6.578125 -2.53125 L 6.578125 -7.84375 Z M 8.015625 -7.84375 "/></g></g></g><g fill="#23242c" fill-opacity="1"><g transform="translate(208.278805, 10.209019)"><g><path d="M 4.4375 -2.765625 L 4.4375 0 L 2.984375 0 L 2.984375 -2.75 L -0.09375 -7.84375 L 1.453125 -7.84375 L 3.75 -4.015625 L 6.078125 -7.84375 L 7.5 -7.84375 Z M 4.4375 -2.765625 "/></g></g></g></g></g></svg>