<svg xmlns="http://www.w3.org/2000/svg" xmlns:xlink="http://www.w3.org/1999/xlink" width="500" zoomAndPan="magnify" viewBox="0 0 375 374.999991" height="500" preserveAspectRatio="xMidYMid meet" version="1.0"><defs><g/><clipPath id="874e1d6081"><path d="M 187 187 L 215 187 L 215 219.410156 L 187 219.410156 Z M 187 187 " clip-rule="nonzero"/></clipPath><clipPath id="6fab729c64"><path d="M 214 172 L 242.253906 172 L 242.253906 204 L 214 204 Z M 214 172 " clip-rule="nonzero"/></clipPath><clipPath id="4b77e662ff"><path d="M 160 187 L 188 187 L 188 219.410156 L 160 219.410156 Z M 160 187 " clip-rule="nonzero"/></clipPath><clipPath id="ea3732849a"><path d="M 132.753906 172 L 161 172 L 161 204 L 132.753906 204 Z M 132.753906 172 " clip-rule="nonzero"/></clipPath><clipPath id="f4601f6f4b"><path d="M 132.753906 140 L 161 140 L 161 173 L 132.753906 173 Z M 132.753906 140 " clip-rule="nonzero"/></clipPath><clipPath id="f916d65656"><path d="M 132.753906 156 L 161 156 L 161 188 L 132.753906 188 Z M 132.753906 156 " clip-rule="nonzero"/></clipPath><clipPath id="aafaebc656"><path d="M 132.753906 124 L 161 124 L 161 157 L 132.753906 157 Z M 132.753906 124 " clip-rule="nonzero"/></clipPath><clipPath id="2c50f16589"><path d="M 132.753906 109 L 161 109 L 161 141 L 132.753906 141 Z M 132.753906 109 " clip-rule="nonzero"/></clipPath><clipPath id="aa23e8afc0"><path d="M 219 68.660156 L 240 68.660156 L 240 91 L 219 91 Z M 219 68.660156 " clip-rule="nonzero"/></clipPath></defs><g clip-path="url(#874e1d6081)"><path fill="#cd1e57" d="M 214.824219 203.636719 L 201.164062 211.519531 L 187.503906 219.40625 L 187.503906 187.863281 L 201.164062 195.746094 Z M 214.824219 203.636719 " fill-opacity="1" fill-rule="evenodd"/></g><path fill="#bd2329" d="M 187.503906 187.863281 L 214.824219 172.089844 L 214.824219 203.636719 L 201.164062 195.746094 Z M 187.503906 187.863281 " fill-opacity="1" fill-rule="evenodd"/><g clip-path="url(#6fab729c64)"><path fill="#e6422e" d="M 242.144531 187.863281 L 228.488281 195.746094 L 214.824219 203.636719 L 214.824219 172.089844 L 228.488281 179.976562 Z M 242.144531 187.863281 " fill-opacity="1" fill-rule="evenodd"/></g><g clip-path="url(#4b77e662ff)"><path fill="#dc1e7a" d="M 160.183594 203.636719 L 173.84375 211.519531 L 187.503906 219.40625 L 187.503906 187.863281 L 173.84375 195.746094 Z M 160.183594 203.636719 " fill-opacity="1" fill-rule="evenodd"/></g><path fill="#8e2680" d="M 187.503906 187.863281 L 173.84375 195.746094 L 160.183594 203.636719 L 160.183594 172.089844 Z M 187.503906 187.863281 " fill-opacity="1" fill-rule="evenodd"/><g clip-path="url(#ea3732849a)"><path fill="#652a7d" d="M 132.863281 187.863281 L 160.183594 172.089844 L 160.183594 203.636719 L 146.523438 195.746094 Z M 132.863281 187.863281 " fill-opacity="1" fill-rule="evenodd"/></g><g clip-path="url(#f4601f6f4b)"><path fill="#27397d" d="M 132.863281 156.316406 L 160.183594 172.089844 L 160.183594 140.546875 L 146.523438 148.433594 Z M 132.863281 156.316406 " fill-opacity="1" fill-rule="evenodd"/></g><g clip-path="url(#f916d65656)"><path fill="#232358" d="M 160.183594 172.089844 L 132.863281 187.863281 L 132.863281 156.316406 Z M 160.183594 172.089844 " fill-opacity="1" fill-rule="evenodd"/></g><g clip-path="url(#aafaebc656)"><path fill="#347cba" d="M 160.183594 140.546875 L 146.523438 148.433594 L 132.863281 156.316406 L 132.863281 124.773438 Z M 160.183594 140.546875 " fill-opacity="1" fill-rule="evenodd"/></g><g clip-path="url(#2c50f16589)"><path fill="#1ba1a3" d="M 132.863281 124.773438 L 160.183594 140.546875 L 160.183594 109 L 146.523438 116.890625 Z M 132.863281 124.773438 " fill-opacity="1" fill-rule="evenodd"/></g><path fill="#036635" d="M 187.503906 124.773438 L 160.183594 140.546875 L 160.183594 109 L 173.84375 116.890625 Z M 187.503906 124.773438 " fill-opacity="1" fill-rule="evenodd"/><path fill="#8cc540" d="M 187.503906 124.773438 L 214.824219 140.546875 L 214.824219 109 L 201.164062 116.890625 Z M 187.503906 124.773438 " fill-opacity="1" fill-rule="evenodd"/><path fill="#138f46" d="M 150.492188 93.5625 L 177.8125 77.789062 L 177.8125 109.335938 L 164.152344 101.445312 Z M 150.492188 93.5625 " fill-opacity="1" fill-rule="evenodd"/><path fill="#dddc20" d="M 188.054688 92.804688 L 197.953125 87.09375 L 207.847656 81.378906 L 207.847656 104.234375 L 197.953125 98.519531 Z M 188.054688 92.804688 " fill-opacity="1" fill-rule="evenodd"/><path fill="#fccc0f" d="M 241.90625 116.019531 L 235.832031 112.507812 L 229.753906 109 L 229.753906 123.03125 L 235.832031 119.523438 Z M 241.90625 116.019531 " fill-opacity="1" fill-rule="evenodd"/><g clip-path="url(#aa23e8afc0)"><path fill="#fcee1f" d="M 239.027344 79.359375 L 229.429688 74.007812 L 219.835938 68.660156 L 219.835938 90.058594 L 229.429688 84.710938 Z M 239.027344 79.359375 " fill-opacity="1" fill-rule="evenodd"/></g><g fill="#efefef" fill-opacity="1"><g transform="translate(66.986528, 259.513459)"><g><path d="M 3.546875 -26.4375 L 8.453125 -26.4375 L 8.453125 -4.15625 L 22.28125 -4.15625 L 22.28125 0 L 3.546875 0 Z M 3.546875 -26.4375 "/></g></g></g><g fill="#efefef" fill-opacity="1"><g transform="translate(91.529641, 259.513459)"><g><path d="M 23.375 -4.109375 L 23.375 0 L 3.546875 0 L 3.546875 -26.4375 L 22.84375 -26.4375 L 22.84375 -22.3125 L 8.453125 -22.3125 L 8.453125 -15.453125 L 21.21875 -15.453125 L 21.21875 -11.40625 L 8.453125 -11.40625 L 8.453125 -4.109375 Z M 23.375 -4.109375 "/></g></g></g><g fill="#efefef" fill-opacity="1"><g transform="translate(118.753554, 259.513459)"><g><path d="M 20.203125 0 L 13.03125 -10.046875 L 5.921875 0 L 0.34375 0 L 10.15625 -13.484375 L 0.875 -26.4375 L 6.421875 -26.4375 L 13.1875 -17.03125 L 19.859375 -26.4375 L 25.1875 -26.4375 L 15.9375 -13.671875 L 25.875 0 Z M 20.203125 0 "/></g></g></g><g fill="#efefef" fill-opacity="1"><g transform="translate(146.84589, 259.513459)"><g><path d="M 3.546875 -26.4375 L 8.453125 -26.4375 L 8.453125 0 L 3.546875 0 Z M 3.546875 -26.4375 "/></g></g></g><g fill="#efefef" fill-opacity="1"><g transform="translate(160.816813, 259.513459)"><g><path d="M 11.75 0.375 C 9.707031 0.375 7.734375 0.0859375 5.828125 -0.484375 C 3.929688 -1.066406 2.429688 -1.835938 1.328125 -2.796875 L 3.015625 -6.609375 C 4.097656 -5.753906 5.425781 -5.054688 7 -4.515625 C 8.570312 -3.972656 10.15625 -3.703125 11.75 -3.703125 C 13.707031 -3.703125 15.171875 -4.015625 16.140625 -4.640625 C 17.109375 -5.273438 17.59375 -6.109375 17.59375 -7.140625 C 17.59375 -7.890625 17.320312 -8.507812 16.78125 -9 C 16.238281 -9.5 15.550781 -9.882812 14.71875 -10.15625 C 13.894531 -10.4375 12.765625 -10.753906 11.328125 -11.109375 C 9.316406 -11.585938 7.6875 -12.0625 6.4375 -12.53125 C 5.1875 -13.007812 4.113281 -13.757812 3.21875 -14.78125 C 2.332031 -15.800781 1.890625 -17.179688 1.890625 -18.921875 C 1.890625 -20.378906 2.285156 -21.707031 3.078125 -22.90625 C 3.867188 -24.101562 5.0625 -25.050781 6.65625 -25.75 C 8.257812 -26.457031 10.21875 -26.8125 12.53125 -26.8125 C 14.144531 -26.8125 15.734375 -26.609375 17.296875 -26.203125 C 18.859375 -25.804688 20.207031 -25.226562 21.34375 -24.46875 L 19.796875 -20.65625 C 18.628906 -21.332031 17.414062 -21.847656 16.15625 -22.203125 C 14.90625 -22.554688 13.6875 -22.734375 12.5 -22.734375 C 10.5625 -22.734375 9.117188 -22.40625 8.171875 -21.75 C 7.234375 -21.09375 6.765625 -20.222656 6.765625 -19.140625 C 6.765625 -18.390625 7.035156 -17.773438 7.578125 -17.296875 C 8.117188 -16.816406 8.800781 -16.4375 9.625 -16.15625 C 10.457031 -15.882812 11.59375 -15.570312 13.03125 -15.21875 C 14.988281 -14.769531 16.597656 -14.296875 17.859375 -13.796875 C 19.117188 -13.304688 20.195312 -12.554688 21.09375 -11.546875 C 21.988281 -10.546875 22.4375 -9.191406 22.4375 -7.484375 C 22.4375 -6.015625 22.035156 -4.6875 21.234375 -3.5 C 20.441406 -2.320312 19.238281 -1.378906 17.625 -0.671875 C 16.019531 0.0234375 14.0625 0.375 11.75 0.375 Z M 11.75 0.375 "/></g></g></g><g fill="#efefef" fill-opacity="1"><g transform="translate(186.49265, 259.513459)"><g><path d="M 15.78125 0.375 C 13.113281 0.375 10.703125 -0.207031 8.546875 -1.375 C 6.398438 -2.550781 4.710938 -4.171875 3.484375 -6.234375 C 2.265625 -8.296875 1.65625 -10.625 1.65625 -13.21875 C 1.65625 -15.8125 2.269531 -18.140625 3.5 -20.203125 C 4.738281 -22.265625 6.4375 -23.878906 8.59375 -25.046875 C 10.75 -26.222656 13.160156 -26.8125 15.828125 -26.8125 C 17.992188 -26.8125 19.96875 -26.429688 21.75 -25.671875 C 23.539062 -24.921875 25.050781 -23.828125 26.28125 -22.390625 L 23.109375 -19.40625 C 21.203125 -21.476562 18.847656 -22.515625 16.046875 -22.515625 C 14.234375 -22.515625 12.609375 -22.113281 11.171875 -21.3125 C 9.742188 -20.519531 8.625 -19.421875 7.8125 -18.015625 C 7.007812 -16.609375 6.609375 -15.007812 6.609375 -13.21875 C 6.609375 -11.425781 7.007812 -9.828125 7.8125 -8.421875 C 8.625 -7.015625 9.742188 -5.910156 11.171875 -5.109375 C 12.609375 -4.316406 14.234375 -3.921875 16.046875 -3.921875 C 18.847656 -3.921875 21.203125 -4.96875 23.109375 -7.0625 L 26.28125 -4.046875 C 25.050781 -2.609375 23.535156 -1.507812 21.734375 -0.75 C 19.929688 0 17.945312 0.375 15.78125 0.375 Z M 15.78125 0.375 "/></g></g></g><g fill="#efefef" fill-opacity="1"><g transform="translate(215.868762, 259.513459)"><g><path d="M 15.90625 0.375 C 13.207031 0.375 10.773438 -0.207031 8.609375 -1.375 C 6.441406 -2.550781 4.738281 -4.175781 3.5 -6.25 C 2.269531 -8.320312 1.65625 -10.644531 1.65625 -13.21875 C 1.65625 -15.78125 2.269531 -18.097656 3.5 -20.171875 C 4.738281 -22.253906 6.441406 -23.878906 8.609375 -25.046875 C 10.773438 -26.222656 13.207031 -26.8125 15.90625 -26.8125 C 18.59375 -26.8125 21.019531 -26.222656 23.1875 -25.046875 C 25.351562 -23.878906 27.050781 -22.265625 28.28125 -20.203125 C 29.519531 -18.140625 30.140625 -15.8125 30.140625 -13.21875 C 30.140625 -10.625 29.519531 -8.296875 28.28125 -6.234375 C 27.050781 -4.171875 25.351562 -2.550781 23.1875 -1.375 C 21.019531 -0.207031 18.59375 0.375 15.90625 0.375 Z M 15.90625 -3.921875 C 17.664062 -3.921875 19.25 -4.316406 20.65625 -5.109375 C 22.0625 -5.910156 23.164062 -7.019531 23.96875 -8.4375 C 24.78125 -9.863281 25.1875 -11.457031 25.1875 -13.21875 C 25.1875 -14.976562 24.78125 -16.566406 23.96875 -17.984375 C 23.164062 -19.410156 22.0625 -20.519531 20.65625 -21.3125 C 19.25 -22.113281 17.664062 -22.515625 15.90625 -22.515625 C 14.132812 -22.515625 12.546875 -22.113281 11.140625 -21.3125 C 9.734375 -20.519531 8.625 -19.410156 7.8125 -17.984375 C 7.007812 -16.566406 6.609375 -14.976562 6.609375 -13.21875 C 6.609375 -11.457031 7.007812 -9.863281 7.8125 -8.4375 C 8.625 -7.019531 9.734375 -5.910156 11.140625 -5.109375 C 12.546875 -4.316406 14.132812 -3.921875 15.90625 -3.921875 Z M 15.90625 -3.921875 "/></g></g></g><g fill="#efefef" fill-opacity="1"><g transform="translate(249.587014, 259.513459)"><g><path d="M 3.546875 -26.4375 L 15.109375 -26.4375 C 17.929688 -26.4375 20.4375 -25.890625 22.625 -24.796875 C 24.8125 -23.703125 26.507812 -22.148438 27.71875 -20.140625 C 28.925781 -18.140625 29.53125 -15.832031 29.53125 -13.21875 C 29.53125 -10.601562 28.925781 -8.289062 27.71875 -6.28125 C 26.507812 -4.28125 24.8125 -2.734375 22.625 -1.640625 C 20.4375 -0.546875 17.929688 0 15.109375 0 L 3.546875 0 Z M 14.875 -4.15625 C 16.8125 -4.15625 18.515625 -4.523438 19.984375 -5.265625 C 21.460938 -6.003906 22.597656 -7.0625 23.390625 -8.4375 C 24.179688 -9.8125 24.578125 -11.40625 24.578125 -13.21875 C 24.578125 -15.03125 24.179688 -16.617188 23.390625 -17.984375 C 22.597656 -19.359375 21.460938 -20.414062 19.984375 -21.15625 C 18.515625 -21.90625 16.8125 -22.28125 14.875 -22.28125 L 8.453125 -22.28125 L 8.453125 -4.15625 Z M 14.875 -4.15625 "/></g></g></g><g fill="#efefef" fill-opacity="1"><g transform="translate(282.701144, 259.513459)"><g><path d="M 23.375 -4.109375 L 23.375 0 L 3.546875 0 L 3.546875 -26.4375 L 22.84375 -26.4375 L 22.84375 -22.3125 L 8.453125 -22.3125 L 8.453125 -15.453125 L 21.21875 -15.453125 L 21.21875 -11.40625 L 8.453125 -11.40625 L 8.453125 -4.109375 Z M 23.375 -4.109375 "/></g></g></g><g fill="#efefef" fill-opacity="1"><g transform="translate(41.505555, 287.107188)"><g><path d="M 6.9375 -1.21875 L 6.9375 0 L 1.046875 0 L 1.046875 -7.859375 L 6.78125 -7.859375 L 6.78125 -6.625 L 2.515625 -6.625 L 2.515625 -4.59375 L 6.3125 -4.59375 L 6.3125 -3.390625 L 2.515625 -3.390625 L 2.515625 -1.21875 Z M 6.9375 -1.21875 "/></g></g></g><g fill="#efefef" fill-opacity="1"><g transform="translate(52.555237, 287.107188)"><g><path d="M 1.046875 -7.859375 L 2.515625 -7.859375 L 2.515625 -1.234375 L 6.625 -1.234375 L 6.625 0 L 1.046875 0 Z M 1.046875 -7.859375 "/></g></g></g><g fill="#efefef" fill-opacity="1"><g transform="translate(62.809508, 287.107188)"><g/></g></g><g fill="#efefef" fill-opacity="1"><g transform="translate(69.445193, 287.107188)"><g><path d="M 6.9375 -1.21875 L 6.9375 0 L 1.046875 0 L 1.046875 -7.859375 L 6.78125 -7.859375 L 6.78125 -6.625 L 2.515625 -6.625 L 2.515625 -4.59375 L 6.3125 -4.59375 L 6.3125 -3.390625 L 2.515625 -3.390625 L 2.515625 -1.21875 Z M 6.9375 -1.21875 "/></g></g></g><g fill="#efefef" fill-opacity="1"><g transform="translate(80.494875, 287.107188)"><g><path d="M 3.484375 0.109375 C 2.878906 0.109375 2.296875 0.0234375 1.734375 -0.140625 C 1.171875 -0.316406 0.722656 -0.546875 0.390625 -0.828125 L 0.890625 -1.96875 C 1.210938 -1.707031 1.609375 -1.492188 2.078125 -1.328125 C 2.546875 -1.171875 3.015625 -1.09375 3.484375 -1.09375 C 4.066406 -1.09375 4.503906 -1.1875 4.796875 -1.375 C 5.085938 -1.5625 5.234375 -1.8125 5.234375 -2.125 C 5.234375 -2.34375 5.148438 -2.523438 4.984375 -2.671875 C 4.828125 -2.816406 4.625 -2.929688 4.375 -3.015625 C 4.125 -3.097656 3.785156 -3.191406 3.359375 -3.296875 C 2.765625 -3.441406 2.28125 -3.582031 1.90625 -3.71875 C 1.539062 -3.863281 1.222656 -4.085938 0.953125 -4.390625 C 0.691406 -4.691406 0.5625 -5.101562 0.5625 -5.625 C 0.5625 -6.050781 0.675781 -6.441406 0.90625 -6.796875 C 1.144531 -7.160156 1.5 -7.445312 1.96875 -7.65625 C 2.445312 -7.863281 3.03125 -7.96875 3.71875 -7.96875 C 4.195312 -7.96875 4.664062 -7.90625 5.125 -7.78125 C 5.59375 -7.664062 6 -7.492188 6.34375 -7.265625 L 5.875 -6.140625 C 5.53125 -6.335938 5.171875 -6.488281 4.796875 -6.59375 C 4.421875 -6.695312 4.0625 -6.75 3.71875 -6.75 C 3.132812 -6.75 2.703125 -6.648438 2.421875 -6.453125 C 2.148438 -6.265625 2.015625 -6.007812 2.015625 -5.6875 C 2.015625 -5.457031 2.09375 -5.269531 2.25 -5.125 C 2.40625 -4.988281 2.609375 -4.878906 2.859375 -4.796875 C 3.109375 -4.710938 3.445312 -4.617188 3.875 -4.515625 C 4.457031 -4.378906 4.9375 -4.238281 5.3125 -4.09375 C 5.6875 -3.945312 6.003906 -3.722656 6.265625 -3.421875 C 6.523438 -3.128906 6.65625 -2.726562 6.65625 -2.21875 C 6.65625 -1.789062 6.535156 -1.398438 6.296875 -1.046875 C 6.066406 -0.691406 5.710938 -0.410156 5.234375 -0.203125 C 4.753906 0.00390625 4.171875 0.109375 3.484375 0.109375 Z M 3.484375 0.109375 "/></g></g></g><g fill="#efefef" fill-opacity="1"><g transform="translate(91.085237, 287.107188)"><g><path d="M 2.640625 -6.625 L 0.046875 -6.625 L 0.046875 -7.859375 L 6.703125 -7.859375 L 6.703125 -6.625 L 4.109375 -6.625 L 4.109375 0 L 2.640625 0 Z M 2.640625 -6.625 "/></g></g></g><g fill="#efefef" fill-opacity="1"><g transform="translate(101.373108, 287.107188)"><g><path d="M 6.140625 -1.8125 L 2.21875 -1.8125 L 1.453125 0 L -0.0625 0 L 3.484375 -7.859375 L 4.90625 -7.859375 L 8.453125 0 L 6.9375 0 Z M 5.671875 -2.96875 L 4.1875 -6.390625 L 2.71875 -2.96875 Z M 4.765625 -10.03125 L 6.421875 -10.03125 L 4.46875 -8.5 L 3.25 -8.5 Z M 4.765625 -10.03125 "/></g></g></g><g fill="#efefef" fill-opacity="1"><g transform="translate(113.307831, 287.107188)"><g><path d="M 8.03125 -7.859375 L 8.03125 0 L 6.828125 0 L 2.5 -5.3125 L 2.5 0 L 1.046875 0 L 1.046875 -7.859375 L 2.25 -7.859375 L 6.578125 -2.53125 L 6.578125 -7.859375 Z M 8.03125 -7.859375 "/></g></g></g><g fill="#efefef" fill-opacity="1"><g transform="translate(125.925936, 287.107188)"><g><path d="M 1.046875 -7.859375 L 4.484375 -7.859375 C 5.328125 -7.859375 6.070312 -7.691406 6.71875 -7.359375 C 7.375 -7.035156 7.878906 -6.578125 8.234375 -5.984375 C 8.585938 -5.390625 8.765625 -4.703125 8.765625 -3.921875 C 8.765625 -3.148438 8.585938 -2.460938 8.234375 -1.859375 C 7.878906 -1.265625 7.375 -0.804688 6.71875 -0.484375 C 6.070312 -0.160156 5.328125 0 4.484375 0 L 1.046875 0 Z M 4.421875 -1.234375 C 4.992188 -1.234375 5.5 -1.34375 5.9375 -1.5625 C 6.375 -1.78125 6.707031 -2.09375 6.9375 -2.5 C 7.175781 -2.914062 7.296875 -3.390625 7.296875 -3.921875 C 7.296875 -4.460938 7.175781 -4.9375 6.9375 -5.34375 C 6.707031 -5.75 6.375 -6.0625 5.9375 -6.28125 C 5.5 -6.507812 4.992188 -6.625 4.421875 -6.625 L 2.515625 -6.625 L 2.515625 -1.234375 Z M 4.421875 -1.234375 "/></g></g></g><g fill="#efefef" fill-opacity="1"><g transform="translate(138.723291, 287.107188)"><g><path d="M 6.140625 -1.8125 L 2.21875 -1.8125 L 1.453125 0 L -0.0625 0 L 3.484375 -7.859375 L 4.90625 -7.859375 L 8.453125 0 L 6.9375 0 Z M 5.671875 -2.96875 L 4.1875 -6.390625 L 2.71875 -2.96875 Z M 5.671875 -2.96875 "/></g></g></g><g fill="#efefef" fill-opacity="1"><g transform="translate(150.658013, 287.107188)"><g><path d="M 6.1875 0 L 4.59375 -2.296875 C 4.519531 -2.285156 4.414062 -2.28125 4.28125 -2.28125 L 2.515625 -2.28125 L 2.515625 0 L 1.046875 0 L 1.046875 -7.859375 L 4.28125 -7.859375 C 4.96875 -7.859375 5.5625 -7.742188 6.0625 -7.515625 C 6.570312 -7.296875 6.957031 -6.972656 7.21875 -6.546875 C 7.488281 -6.128906 7.625 -5.632812 7.625 -5.0625 C 7.625 -4.46875 7.476562 -3.957031 7.1875 -3.53125 C 6.90625 -3.101562 6.492188 -2.785156 5.953125 -2.578125 L 7.765625 0 Z M 6.15625 -5.0625 C 6.15625 -5.5625 5.988281 -5.945312 5.65625 -6.21875 C 5.332031 -6.488281 4.851562 -6.625 4.21875 -6.625 L 2.515625 -6.625 L 2.515625 -3.484375 L 4.21875 -3.484375 C 4.851562 -3.484375 5.332031 -3.617188 5.65625 -3.890625 C 5.988281 -4.171875 6.15625 -4.5625 6.15625 -5.0625 Z M 6.15625 -5.0625 "/></g></g></g><g fill="#efefef" fill-opacity="1"><g transform="translate(162.391079, 287.107188)"><g/></g></g><g fill="#efefef" fill-opacity="1"><g transform="translate(169.026764, 287.107188)"><g><path d="M 6.9375 -1.21875 L 6.9375 0 L 1.046875 0 L 1.046875 -7.859375 L 6.78125 -7.859375 L 6.78125 -6.625 L 2.515625 -6.625 L 2.515625 -4.59375 L 6.3125 -4.59375 L 6.3125 -3.390625 L 2.515625 -3.390625 L 2.515625 -1.21875 Z M 6.9375 -1.21875 "/></g></g></g><g fill="#efefef" fill-opacity="1"><g transform="translate(180.076446, 287.107188)"><g><path d="M 8.03125 -7.859375 L 8.03125 0 L 6.828125 0 L 2.5 -5.3125 L 2.5 0 L 1.046875 0 L 1.046875 -7.859375 L 2.25 -7.859375 L 6.578125 -2.53125 L 6.578125 -7.859375 Z M 8.03125 -7.859375 "/></g></g></g><g fill="#efefef" fill-opacity="1"><g transform="translate(192.694551, 287.107188)"><g/></g></g><g fill="#efefef" fill-opacity="1"><g transform="translate(199.330236, 287.107188)"><g><path d="M 4.6875 0.109375 C 3.894531 0.109375 3.175781 -0.0625 2.53125 -0.40625 C 1.894531 -0.757812 1.394531 -1.238281 1.03125 -1.84375 C 0.675781 -2.457031 0.5 -3.148438 0.5 -3.921875 C 0.5 -4.691406 0.679688 -5.382812 1.046875 -6 C 1.410156 -6.613281 1.910156 -7.09375 2.546875 -7.4375 C 3.191406 -7.789062 3.910156 -7.96875 4.703125 -7.96875 C 5.347656 -7.96875 5.9375 -7.851562 6.46875 -7.625 C 7 -7.40625 7.445312 -7.082031 7.8125 -6.65625 L 6.859375 -5.765625 C 6.296875 -6.378906 5.597656 -6.6875 4.765625 -6.6875 C 4.222656 -6.6875 3.738281 -6.566406 3.3125 -6.328125 C 2.894531 -6.097656 2.566406 -5.769531 2.328125 -5.34375 C 2.085938 -4.925781 1.96875 -4.453125 1.96875 -3.921875 C 1.96875 -3.390625 2.085938 -2.914062 2.328125 -2.5 C 2.566406 -2.082031 2.894531 -1.753906 3.3125 -1.515625 C 3.738281 -1.285156 4.222656 -1.171875 4.765625 -1.171875 C 5.597656 -1.171875 6.296875 -1.476562 6.859375 -2.09375 L 7.8125 -1.203125 C 7.445312 -0.773438 6.992188 -0.445312 6.453125 -0.21875 C 5.921875 0 5.332031 0.109375 4.6875 0.109375 Z M 4.6875 0.109375 "/></g></g></g><g fill="#efefef" fill-opacity="1"><g transform="translate(211.018498, 287.107188)"><g><path d="M 6.9375 -1.21875 L 6.9375 0 L 1.046875 0 L 1.046875 -7.859375 L 6.78125 -7.859375 L 6.78125 -6.625 L 2.515625 -6.625 L 2.515625 -4.59375 L 6.3125 -4.59375 L 6.3125 -3.390625 L 2.515625 -3.390625 L 2.515625 -1.21875 Z M 6.9375 -1.21875 "/></g></g></g><g fill="#efefef" fill-opacity="1"><g transform="translate(222.06818, 287.107188)"><g><path d="M 6.1875 0 L 4.59375 -2.296875 C 4.519531 -2.285156 4.414062 -2.28125 4.28125 -2.28125 L 2.515625 -2.28125 L 2.515625 0 L 1.046875 0 L 1.046875 -7.859375 L 4.28125 -7.859375 C 4.96875 -7.859375 5.5625 -7.742188 6.0625 -7.515625 C 6.570312 -7.296875 6.957031 -6.972656 7.21875 -6.546875 C 7.488281 -6.128906 7.625 -5.632812 7.625 -5.0625 C 7.625 -4.46875 7.476562 -3.957031 7.1875 -3.53125 C 6.90625 -3.101562 6.492188 -2.785156 5.953125 -2.578125 L 7.765625 0 Z M 6.15625 -5.0625 C 6.15625 -5.5625 5.988281 -5.945312 5.65625 -6.21875 C 5.332031 -6.488281 4.851562 -6.625 4.21875 -6.625 L 2.515625 -6.625 L 2.515625 -3.484375 L 4.21875 -3.484375 C 4.851562 -3.484375 5.332031 -3.617188 5.65625 -3.890625 C 5.988281 -4.171875 6.15625 -4.5625 6.15625 -5.0625 Z M 6.15625 -5.0625 "/></g></g></g><g fill="#efefef" fill-opacity="1"><g transform="translate(233.801257, 287.107188)"><g><path d="M 2.640625 -6.625 L 0.046875 -6.625 L 0.046875 -7.859375 L 6.703125 -7.859375 L 6.703125 -6.625 L 4.109375 -6.625 L 4.109375 0 L 2.640625 0 Z M 2.640625 -6.625 "/></g></g></g><g fill="#efefef" fill-opacity="1"><g transform="translate(244.089129, 287.107188)"><g><path d="M 1.046875 -7.859375 L 2.515625 -7.859375 L 2.515625 0 L 1.046875 0 Z M 1.046875 -7.859375 "/></g></g></g><g fill="#efefef" fill-opacity="1"><g transform="translate(251.206529, 287.107188)"><g><path d="M 2.515625 -6.625 L 2.515625 -4.234375 L 6.3125 -4.234375 L 6.3125 -3 L 2.515625 -3 L 2.515625 0 L 1.046875 0 L 1.046875 -7.859375 L 6.78125 -7.859375 L 6.78125 -6.625 Z M 2.515625 -6.625 "/></g></g></g><g fill="#efefef" fill-opacity="1"><g transform="translate(261.886521, 287.107188)"><g><path d="M 1.046875 -7.859375 L 2.515625 -7.859375 L 2.515625 0 L 1.046875 0 Z M 1.046875 -7.859375 "/></g></g></g><g fill="#efefef" fill-opacity="1"><g transform="translate(269.003922, 287.107188)"><g><path d="M 4.6875 0.109375 C 3.894531 0.109375 3.175781 -0.0625 2.53125 -0.40625 C 1.894531 -0.757812 1.394531 -1.238281 1.03125 -1.84375 C 0.675781 -2.457031 0.5 -3.148438 0.5 -3.921875 C 0.5 -4.691406 0.679688 -5.382812 1.046875 -6 C 1.410156 -6.613281 1.910156 -7.09375 2.546875 -7.4375 C 3.191406 -7.789062 3.910156 -7.96875 4.703125 -7.96875 C 5.347656 -7.96875 5.9375 -7.851562 6.46875 -7.625 C 7 -7.40625 7.445312 -7.082031 7.8125 -6.65625 L 6.859375 -5.765625 C 6.296875 -6.378906 5.597656 -6.6875 4.765625 -6.6875 C 4.222656 -6.6875 3.738281 -6.566406 3.3125 -6.328125 C 2.894531 -6.097656 2.566406 -5.769531 2.328125 -5.34375 C 2.085938 -4.925781 1.96875 -4.453125 1.96875 -3.921875 C 1.96875 -3.390625 2.085938 -2.914062 2.328125 -2.5 C 2.566406 -2.082031 2.894531 -1.753906 3.3125 -1.515625 C 3.738281 -1.285156 4.222656 -1.171875 4.765625 -1.171875 C 5.597656 -1.171875 6.296875 -1.476562 6.859375 -2.09375 L 7.8125 -1.203125 C 7.445312 -0.773438 6.992188 -0.445312 6.453125 -0.21875 C 5.921875 0 5.332031 0.109375 4.6875 0.109375 Z M 4.6875 0.109375 "/></g></g></g><g fill="#efefef" fill-opacity="1"><g transform="translate(280.692184, 287.107188)"><g><path d="M 6.140625 -1.8125 L 2.21875 -1.8125 L 1.453125 0 L -0.0625 0 L 3.484375 -7.859375 L 4.90625 -7.859375 L 8.453125 0 L 6.9375 0 Z M 5.671875 -2.96875 L 4.1875 -6.390625 L 2.71875 -2.96875 Z M 5.671875 -2.96875 "/></g></g></g><g fill="#efefef" fill-opacity="1"><g transform="translate(292.626906, 287.107188)"><g><path d="M 4.6875 0.109375 C 3.894531 0.109375 3.175781 -0.0625 2.53125 -0.40625 C 1.894531 -0.757812 1.394531 -1.238281 1.03125 -1.84375 C 0.675781 -2.457031 0.5 -3.148438 0.5 -3.921875 C 0.5 -4.691406 0.679688 -5.382812 1.046875 -6 C 1.410156 -6.613281 1.910156 -7.09375 2.546875 -7.4375 C 3.191406 -7.789062 3.910156 -7.96875 4.703125 -7.96875 C 5.347656 -7.96875 5.9375 -7.851562 6.46875 -7.625 C 7 -7.40625 7.445312 -7.082031 7.8125 -6.65625 L 6.859375 -5.765625 C 6.296875 -6.378906 5.597656 -6.6875 4.765625 -6.6875 C 4.222656 -6.6875 3.738281 -6.566406 3.3125 -6.328125 C 2.894531 -6.097656 2.566406 -5.769531 2.328125 -5.34375 C 2.085938 -4.925781 1.96875 -4.453125 1.96875 -3.921875 C 1.96875 -3.390625 2.085938 -2.914062 2.328125 -2.5 C 2.566406 -2.082031 2.894531 -1.753906 3.3125 -1.515625 C 3.738281 -1.285156 4.222656 -1.171875 4.765625 -1.171875 C 5.597656 -1.171875 6.296875 -1.476562 6.859375 -2.09375 L 7.8125 -1.203125 C 7.445312 -0.773438 6.992188 -0.445312 6.453125 -0.21875 C 5.921875 0 5.332031 0.109375 4.6875 0.109375 Z M 4.6875 0.109375 "/></g></g></g><g fill="#efefef" fill-opacity="1"><g transform="translate(304.315169, 287.107188)"><g><path d="M 1.046875 -7.859375 L 2.515625 -7.859375 L 2.515625 0 L 1.046875 0 Z M 1.046875 -7.859375 "/></g></g></g><g fill="#efefef" fill-opacity="1"><g transform="translate(311.432569, 287.107188)"><g><path d="M 4.71875 0.109375 C 3.914062 0.109375 3.191406 -0.0625 2.546875 -0.40625 C 1.910156 -0.757812 1.410156 -1.242188 1.046875 -1.859375 C 0.679688 -2.472656 0.5 -3.160156 0.5 -3.921875 C 0.5 -4.691406 0.679688 -5.382812 1.046875 -6 C 1.410156 -6.613281 1.910156 -7.09375 2.546875 -7.4375 C 3.191406 -7.789062 3.914062 -7.96875 4.71875 -7.96875 C 5.519531 -7.96875 6.242188 -7.789062 6.890625 -7.4375 C 7.535156 -7.09375 8.039062 -6.613281 8.40625 -6 C 8.769531 -5.382812 8.953125 -4.691406 8.953125 -3.921875 C 8.953125 -3.148438 8.769531 -2.457031 8.40625 -1.84375 C 8.039062 -1.238281 7.535156 -0.757812 6.890625 -0.40625 C 6.242188 -0.0625 5.519531 0.109375 4.71875 0.109375 Z M 4.71875 -1.171875 C 5.25 -1.171875 5.722656 -1.285156 6.140625 -1.515625 C 6.554688 -1.753906 6.882812 -2.082031 7.125 -2.5 C 7.363281 -2.925781 7.484375 -3.398438 7.484375 -3.921875 C 7.484375 -4.453125 7.363281 -4.925781 7.125 -5.34375 C 6.882812 -5.769531 6.554688 -6.097656 6.140625 -6.328125 C 5.722656 -6.566406 5.25 -6.6875 4.71875 -6.6875 C 4.195312 -6.6875 3.726562 -6.566406 3.3125 -6.328125 C 2.894531 -6.097656 2.566406 -5.769531 2.328125 -5.34375 C 2.085938 -4.925781 1.96875 -4.453125 1.96875 -3.921875 C 1.96875 -3.398438 2.085938 -2.925781 2.328125 -2.5 C 2.566406 -2.082031 2.894531 -1.753906 3.3125 -1.515625 C 3.726562 -1.285156 4.195312 -1.171875 4.71875 -1.171875 Z M 5.296875 -10.03125 L 6.953125 -10.03125 L 5 -8.5 L 3.78125 -8.5 Z M 5.296875 -10.03125 "/></g></g></g><g fill="#efefef" fill-opacity="1"><g transform="translate(324.409185, 287.107188)"><g><path d="M 8.03125 -7.859375 L 8.03125 0 L 6.828125 0 L 2.5 -5.3125 L 2.5 0 L 1.046875 0 L 1.046875 -7.859375 L 2.25 -7.859375 L 6.578125 -2.53125 L 6.578125 -7.859375 Z M 8.03125 -7.859375 "/></g></g></g><g fill="#efefef" fill-opacity="1"><g transform="translate(33.290712, 302.107187)"><g><path d="M 1.046875 -7.859375 L 4.484375 -7.859375 C 5.328125 -7.859375 6.070312 -7.691406 6.71875 -7.359375 C 7.375 -7.035156 7.878906 -6.578125 8.234375 -5.984375 C 8.585938 -5.390625 8.765625 -4.703125 8.765625 -3.921875 C 8.765625 -3.148438 8.585938 -2.460938 8.234375 -1.859375 C 7.878906 -1.265625 7.375 -0.804688 6.71875 -0.484375 C 6.070312 -0.160156 5.328125 0 4.484375 0 L 1.046875 0 Z M 4.421875 -1.234375 C 4.992188 -1.234375 5.5 -1.34375 5.9375 -1.5625 C 6.375 -1.78125 6.707031 -2.09375 6.9375 -2.5 C 7.175781 -2.914062 7.296875 -3.390625 7.296875 -3.921875 C 7.296875 -4.460938 7.175781 -4.9375 6.9375 -5.34375 C 6.707031 -5.75 6.375 -6.0625 5.9375 -6.28125 C 5.5 -6.507812 4.992188 -6.625 4.421875 -6.625 L 2.515625 -6.625 L 2.515625 -1.234375 Z M 4.421875 -1.234375 "/></g></g></g><g fill="#efefef" fill-opacity="1"><g transform="translate(46.088066, 302.107187)"><g><path d="M 6.9375 -1.21875 L 6.9375 0 L 1.046875 0 L 1.046875 -7.859375 L 6.78125 -7.859375 L 6.78125 -6.625 L 2.515625 -6.625 L 2.515625 -4.59375 L 6.3125 -4.59375 L 6.3125 -3.390625 L 2.515625 -3.390625 L 2.515625 -1.21875 Z M 6.9375 -1.21875 "/></g></g></g><g fill="#efefef" fill-opacity="1"><g transform="translate(57.137748, 302.107187)"><g/></g></g><g fill="#efefef" fill-opacity="1"><g transform="translate(63.773433, 302.107187)"><g><path d="M 1.046875 -7.859375 L 2.515625 -7.859375 L 2.515625 -1.234375 L 6.625 -1.234375 L 6.625 0 L 1.046875 0 Z M 1.046875 -7.859375 "/></g></g></g><g fill="#efefef" fill-opacity="1"><g transform="translate(74.027705, 302.107187)"><g><path d="M 6.9375 -1.21875 L 6.9375 0 L 1.046875 0 L 1.046875 -7.859375 L 6.78125 -7.859375 L 6.78125 -6.625 L 2.515625 -6.625 L 2.515625 -4.59375 L 6.3125 -4.59375 L 6.3125 -3.390625 L 2.515625 -3.390625 L 2.515625 -1.21875 Z M 6.9375 -1.21875 "/></g></g></g><g fill="#efefef" fill-opacity="1"><g transform="translate(85.077387, 302.107187)"><g><path d="M 8.03125 -7.859375 L 8.03125 0 L 6.828125 0 L 2.5 -5.3125 L 2.5 0 L 1.046875 0 L 1.046875 -7.859375 L 2.25 -7.859375 L 6.578125 -2.53125 L 6.578125 -7.859375 Z M 8.03125 -7.859375 "/></g></g></g><g fill="#efefef" fill-opacity="1"><g transform="translate(97.695492, 302.107187)"><g><path d="M 6.421875 -4.015625 L 7.796875 -4.015625 L 7.796875 -0.890625 C 7.390625 -0.566406 6.914062 -0.316406 6.375 -0.140625 C 5.84375 0.0234375 5.289062 0.109375 4.71875 0.109375 C 3.914062 0.109375 3.191406 -0.0625 2.546875 -0.40625 C 1.910156 -0.757812 1.410156 -1.238281 1.046875 -1.84375 C 0.679688 -2.457031 0.5 -3.148438 0.5 -3.921875 C 0.5 -4.691406 0.679688 -5.382812 1.046875 -6 C 1.410156 -6.613281 1.914062 -7.09375 2.5625 -7.4375 C 3.207031 -7.789062 3.9375 -7.96875 4.75 -7.96875 C 5.40625 -7.96875 6 -7.859375 6.53125 -7.640625 C 7.070312 -7.421875 7.523438 -7.101562 7.890625 -6.6875 L 6.984375 -5.78125 C 6.378906 -6.382812 5.65625 -6.6875 4.8125 -6.6875 C 4.257812 -6.6875 3.765625 -6.566406 3.328125 -6.328125 C 2.898438 -6.097656 2.566406 -5.773438 2.328125 -5.359375 C 2.085938 -4.941406 1.96875 -4.460938 1.96875 -3.921875 C 1.96875 -3.398438 2.085938 -2.929688 2.328125 -2.515625 C 2.566406 -2.097656 2.898438 -1.769531 3.328125 -1.53125 C 3.765625 -1.289062 4.253906 -1.171875 4.796875 -1.171875 C 5.410156 -1.171875 5.953125 -1.304688 6.421875 -1.578125 Z M 6.421875 -4.015625 "/></g></g></g><g fill="#efefef" fill-opacity="1"><g transform="translate(109.88789, 302.107187)"><g><path d="M 4.4375 0.109375 C 3.351562 0.109375 2.503906 -0.191406 1.890625 -0.796875 C 1.285156 -1.410156 0.984375 -2.285156 0.984375 -3.421875 L 0.984375 -7.859375 L 2.453125 -7.859375 L 2.453125 -3.484375 C 2.453125 -1.941406 3.113281 -1.171875 4.4375 -1.171875 C 5.757812 -1.171875 6.421875 -1.941406 6.421875 -3.484375 L 6.421875 -7.859375 L 7.859375 -7.859375 L 7.859375 -3.421875 C 7.859375 -2.285156 7.554688 -1.410156 6.953125 -0.796875 C 6.359375 -0.191406 5.519531 0.109375 4.4375 0.109375 Z M 4.4375 0.109375 "/></g></g></g><g fill="#efefef" fill-opacity="1"><g transform="translate(122.270739, 302.107187)"><g><path d="M 6.140625 -1.8125 L 2.21875 -1.8125 L 1.453125 0 L -0.0625 0 L 3.484375 -7.859375 L 4.90625 -7.859375 L 8.453125 0 L 6.9375 0 Z M 5.671875 -2.96875 L 4.1875 -6.390625 L 2.71875 -2.96875 Z M 5.671875 -2.96875 "/></g></g></g><g fill="#efefef" fill-opacity="1"><g transform="translate(134.205462, 302.107187)"><g><path d="M 2.28125 0.109375 C 1.78125 0.109375 1.316406 0.0078125 0.890625 -0.1875 C 0.472656 -0.382812 0.128906 -0.660156 -0.140625 -1.015625 L 0.6875 -2.015625 C 1.113281 -1.421875 1.632812 -1.125 2.25 -1.125 C 3.0625 -1.125 3.46875 -1.601562 3.46875 -2.5625 L 3.46875 -6.625 L 0.671875 -6.625 L 0.671875 -7.859375 L 4.921875 -7.859375 L 4.921875 -2.640625 C 4.921875 -1.722656 4.695312 -1.035156 4.25 -0.578125 C 3.800781 -0.117188 3.144531 0.109375 2.28125 0.109375 Z M 2.28125 0.109375 "/></g></g></g><g fill="#efefef" fill-opacity="1"><g transform="translate(143.653108, 302.107187)"><g><path d="M 6.9375 -1.21875 L 6.9375 0 L 1.046875 0 L 1.046875 -7.859375 L 6.78125 -7.859375 L 6.78125 -6.625 L 2.515625 -6.625 L 2.515625 -4.59375 L 6.3125 -4.59375 L 6.3125 -3.390625 L 2.515625 -3.390625 L 2.515625 -1.21875 Z M 6.9375 -1.21875 "/></g></g></g><g fill="#efefef" fill-opacity="1"><g transform="translate(154.70279, 302.107187)"><g><path d="M 3.484375 0.109375 C 2.878906 0.109375 2.296875 0.0234375 1.734375 -0.140625 C 1.171875 -0.316406 0.722656 -0.546875 0.390625 -0.828125 L 0.890625 -1.96875 C 1.210938 -1.707031 1.609375 -1.492188 2.078125 -1.328125 C 2.546875 -1.171875 3.015625 -1.09375 3.484375 -1.09375 C 4.066406 -1.09375 4.503906 -1.1875 4.796875 -1.375 C 5.085938 -1.5625 5.234375 -1.8125 5.234375 -2.125 C 5.234375 -2.34375 5.148438 -2.523438 4.984375 -2.671875 C 4.828125 -2.816406 4.625 -2.929688 4.375 -3.015625 C 4.125 -3.097656 3.785156 -3.191406 3.359375 -3.296875 C 2.765625 -3.441406 2.28125 -3.582031 1.90625 -3.71875 C 1.539062 -3.863281 1.222656 -4.085938 0.953125 -4.390625 C 0.691406 -4.691406 0.5625 -5.101562 0.5625 -5.625 C 0.5625 -6.050781 0.675781 -6.441406 0.90625 -6.796875 C 1.144531 -7.160156 1.5 -7.445312 1.96875 -7.65625 C 2.445312 -7.863281 3.03125 -7.96875 3.71875 -7.96875 C 4.195312 -7.96875 4.664062 -7.90625 5.125 -7.78125 C 5.59375 -7.664062 6 -7.492188 6.34375 -7.265625 L 5.875 -6.140625 C 5.53125 -6.335938 5.171875 -6.488281 4.796875 -6.59375 C 4.421875 -6.695312 4.0625 -6.75 3.71875 -6.75 C 3.132812 -6.75 2.703125 -6.648438 2.421875 -6.453125 C 2.148438 -6.265625 2.015625 -6.007812 2.015625 -5.6875 C 2.015625 -5.457031 2.09375 -5.269531 2.25 -5.125 C 2.40625 -4.988281 2.609375 -4.878906 2.859375 -4.796875 C 3.109375 -4.710938 3.445312 -4.617188 3.875 -4.515625 C 4.457031 -4.378906 4.9375 -4.238281 5.3125 -4.09375 C 5.6875 -3.945312 6.003906 -3.722656 6.265625 -3.421875 C 6.523438 -3.128906 6.65625 -2.726562 6.65625 -2.21875 C 6.65625 -1.789062 6.535156 -1.398438 6.296875 -1.046875 C 6.066406 -0.691406 5.710938 -0.410156 5.234375 -0.203125 C 4.753906 0.00390625 4.171875 0.109375 3.484375 0.109375 Z M 3.484375 0.109375 "/></g></g></g><g fill="#efefef" fill-opacity="1"><g transform="translate(165.293152, 302.107187)"><g/></g></g><g fill="#efefef" fill-opacity="1"><g transform="translate(171.928836, 302.107187)"><g><path d="M 1.046875 -7.859375 L 4.484375 -7.859375 C 5.328125 -7.859375 6.070312 -7.691406 6.71875 -7.359375 C 7.375 -7.035156 7.878906 -6.578125 8.234375 -5.984375 C 8.585938 -5.390625 8.765625 -4.703125 8.765625 -3.921875 C 8.765625 -3.148438 8.585938 -2.460938 8.234375 -1.859375 C 7.878906 -1.265625 7.375 -0.804688 6.71875 -0.484375 C 6.070312 -0.160156 5.328125 0 4.484375 0 L 1.046875 0 Z M 4.421875 -1.234375 C 4.992188 -1.234375 5.5 -1.34375 5.9375 -1.5625 C 6.375 -1.78125 6.707031 -2.09375 6.9375 -2.5 C 7.175781 -2.914062 7.296875 -3.390625 7.296875 -3.921875 C 7.296875 -4.460938 7.175781 -4.9375 6.9375 -5.34375 C 6.707031 -5.75 6.375 -6.0625 5.9375 -6.28125 C 5.5 -6.507812 4.992188 -6.625 4.421875 -6.625 L 2.515625 -6.625 L 2.515625 -1.234375 Z M 4.421875 -1.234375 "/></g></g></g><g fill="#efefef" fill-opacity="1"><g transform="translate(184.726191, 302.107187)"><g><path d="M 6.9375 -1.21875 L 6.9375 0 L 1.046875 0 L 1.046875 -7.859375 L 6.78125 -7.859375 L 6.78125 -6.625 L 2.515625 -6.625 L 2.515625 -4.59375 L 6.3125 -4.59375 L 6.3125 -3.390625 L 2.515625 -3.390625 L 2.515625 -1.21875 Z M 6.9375 -1.21875 "/></g></g></g><g fill="#efefef" fill-opacity="1"><g transform="translate(195.775873, 302.107187)"><g/></g></g><g fill="#efefef" fill-opacity="1"><g transform="translate(202.411558, 302.107187)"><g><path d="M 4.28125 -7.859375 C 4.96875 -7.859375 5.5625 -7.742188 6.0625 -7.515625 C 6.570312 -7.296875 6.957031 -6.972656 7.21875 -6.546875 C 7.488281 -6.128906 7.625 -5.632812 7.625 -5.0625 C 7.625 -4.488281 7.488281 -3.988281 7.21875 -3.5625 C 6.957031 -3.144531 6.570312 -2.820312 6.0625 -2.59375 C 5.5625 -2.375 4.96875 -2.265625 4.28125 -2.265625 L 2.515625 -2.265625 L 2.515625 0 L 1.046875 0 L 1.046875 -7.859375 Z M 4.21875 -3.5 C 4.851562 -3.5 5.332031 -3.632812 5.65625 -3.90625 C 5.988281 -4.175781 6.15625 -4.5625 6.15625 -5.0625 C 6.15625 -5.5625 5.988281 -5.945312 5.65625 -6.21875 C 5.332031 -6.488281 4.851562 -6.625 4.21875 -6.625 L 2.515625 -6.625 L 2.515625 -3.5 Z M 4.21875 -3.5 "/></g></g></g><g fill="#efefef" fill-opacity="1"><g transform="translate(214.088616, 302.107187)"><g><path d="M 6.1875 0 L 4.59375 -2.296875 C 4.519531 -2.285156 4.414062 -2.28125 4.28125 -2.28125 L 2.515625 -2.28125 L 2.515625 0 L 1.046875 0 L 1.046875 -7.859375 L 4.28125 -7.859375 C 4.96875 -7.859375 5.5625 -7.742188 6.0625 -7.515625 C 6.570312 -7.296875 6.957031 -6.972656 7.21875 -6.546875 C 7.488281 -6.128906 7.625 -5.632812 7.625 -5.0625 C 7.625 -4.46875 7.476562 -3.957031 7.1875 -3.53125 C 6.90625 -3.101562 6.492188 -2.785156 5.953125 -2.578125 L 7.765625 0 Z M 6.15625 -5.0625 C 6.15625 -5.5625 5.988281 -5.945312 5.65625 -6.21875 C 5.332031 -6.488281 4.851562 -6.625 4.21875 -6.625 L 2.515625 -6.625 L 2.515625 -3.484375 L 4.21875 -3.484375 C 4.851562 -3.484375 5.332031 -3.617188 5.65625 -3.890625 C 5.988281 -4.171875 6.15625 -4.5625 6.15625 -5.0625 Z M 6.15625 -5.0625 "/></g></g></g><g fill="#efefef" fill-opacity="1"><g transform="translate(225.821682, 302.107187)"><g><path d="M 4.71875 0.109375 C 3.914062 0.109375 3.191406 -0.0625 2.546875 -0.40625 C 1.910156 -0.757812 1.410156 -1.242188 1.046875 -1.859375 C 0.679688 -2.472656 0.5 -3.160156 0.5 -3.921875 C 0.5 -4.691406 0.679688 -5.382812 1.046875 -6 C 1.410156 -6.613281 1.910156 -7.09375 2.546875 -7.4375 C 3.191406 -7.789062 3.914062 -7.96875 4.71875 -7.96875 C 5.519531 -7.96875 6.242188 -7.789062 6.890625 -7.4375 C 7.535156 -7.09375 8.039062 -6.613281 8.40625 -6 C 8.769531 -5.382812 8.953125 -4.691406 8.953125 -3.921875 C 8.953125 -3.148438 8.769531 -2.457031 8.40625 -1.84375 C 8.039062 -1.238281 7.535156 -0.757812 6.890625 -0.40625 C 6.242188 -0.0625 5.519531 0.109375 4.71875 0.109375 Z M 4.71875 -1.171875 C 5.25 -1.171875 5.722656 -1.285156 6.140625 -1.515625 C 6.554688 -1.753906 6.882812 -2.082031 7.125 -2.5 C 7.363281 -2.925781 7.484375 -3.398438 7.484375 -3.921875 C 7.484375 -4.453125 7.363281 -4.925781 7.125 -5.34375 C 6.882812 -5.769531 6.554688 -6.097656 6.140625 -6.328125 C 5.722656 -6.566406 5.25 -6.6875 4.71875 -6.6875 C 4.195312 -6.6875 3.726562 -6.566406 3.3125 -6.328125 C 2.894531 -6.097656 2.566406 -5.769531 2.328125 -5.34375 C 2.085938 -4.925781 1.96875 -4.453125 1.96875 -3.921875 C 1.96875 -3.398438 2.085938 -2.925781 2.328125 -2.5 C 2.566406 -2.082031 2.894531 -1.753906 3.3125 -1.515625 C 3.726562 -1.285156 4.195312 -1.171875 4.71875 -1.171875 Z M 4.71875 -1.171875 "/></g></g></g><g fill="#efefef" fill-opacity="1"><g transform="translate(238.798297, 302.107187)"><g><path d="M 6.421875 -4.015625 L 7.796875 -4.015625 L 7.796875 -0.890625 C 7.390625 -0.566406 6.914062 -0.316406 6.375 -0.140625 C 5.84375 0.0234375 5.289062 0.109375 4.71875 0.109375 C 3.914062 0.109375 3.191406 -0.0625 2.546875 -0.40625 C 1.910156 -0.757812 1.410156 -1.238281 1.046875 -1.84375 C 0.679688 -2.457031 0.5 -3.148438 0.5 -3.921875 C 0.5 -4.691406 0.679688 -5.382812 1.046875 -6 C 1.410156 -6.613281 1.914062 -7.09375 2.5625 -7.4375 C 3.207031 -7.789062 3.9375 -7.96875 4.75 -7.96875 C 5.40625 -7.96875 6 -7.859375 6.53125 -7.640625 C 7.070312 -7.421875 7.523438 -7.101562 7.890625 -6.6875 L 6.984375 -5.78125 C 6.378906 -6.382812 5.65625 -6.6875 4.8125 -6.6875 C 4.257812 -6.6875 3.765625 -6.566406 3.328125 -6.328125 C 2.898438 -6.097656 2.566406 -5.773438 2.328125 -5.359375 C 2.085938 -4.941406 1.96875 -4.460938 1.96875 -3.921875 C 1.96875 -3.398438 2.085938 -2.929688 2.328125 -2.515625 C 2.566406 -2.097656 2.898438 -1.769531 3.328125 -1.53125 C 3.765625 -1.289062 4.253906 -1.171875 4.796875 -1.171875 C 5.410156 -1.171875 5.953125 -1.304688 6.421875 -1.578125 Z M 6.421875 -4.015625 "/></g></g></g><g fill="#efefef" fill-opacity="1"><g transform="translate(250.990695, 302.107187)"><g><path d="M 6.1875 0 L 4.59375 -2.296875 C 4.519531 -2.285156 4.414062 -2.28125 4.28125 -2.28125 L 2.515625 -2.28125 L 2.515625 0 L 1.046875 0 L 1.046875 -7.859375 L 4.28125 -7.859375 C 4.96875 -7.859375 5.5625 -7.742188 6.0625 -7.515625 C 6.570312 -7.296875 6.957031 -6.972656 7.21875 -6.546875 C 7.488281 -6.128906 7.625 -5.632812 7.625 -5.0625 C 7.625 -4.46875 7.476562 -3.957031 7.1875 -3.53125 C 6.90625 -3.101562 6.492188 -2.785156 5.953125 -2.578125 L 7.765625 0 Z M 6.15625 -5.0625 C 6.15625 -5.5625 5.988281 -5.945312 5.65625 -6.21875 C 5.332031 -6.488281 4.851562 -6.625 4.21875 -6.625 L 2.515625 -6.625 L 2.515625 -3.484375 L 4.21875 -3.484375 C 4.851562 -3.484375 5.332031 -3.617188 5.65625 -3.890625 C 5.988281 -4.171875 6.15625 -4.5625 6.15625 -5.0625 Z M 6.15625 -5.0625 "/></g></g></g><g fill="#efefef" fill-opacity="1"><g transform="translate(262.723749, 302.107187)"><g><path d="M 6.140625 -1.8125 L 2.21875 -1.8125 L 1.453125 0 L -0.0625 0 L 3.484375 -7.859375 L 4.90625 -7.859375 L 8.453125 0 L 6.9375 0 Z M 5.671875 -2.96875 L 4.1875 -6.390625 L 2.71875 -2.96875 Z M 5.671875 -2.96875 "/></g></g></g><g fill="#efefef" fill-opacity="1"><g transform="translate(274.658471, 302.107187)"><g><path d="M 8.265625 0 L 8.25 -5.203125 L 5.671875 -0.890625 L 5.03125 -0.890625 L 2.453125 -5.140625 L 2.453125 0 L 1.046875 0 L 1.046875 -7.859375 L 2.25 -7.859375 L 5.375 -2.640625 L 8.4375 -7.859375 L 9.640625 -7.859375 L 9.640625 0 Z M 8.265625 0 "/></g></g></g><g fill="#efefef" fill-opacity="1"><g transform="translate(288.901032, 302.107187)"><g><path d="M 6.140625 -1.8125 L 2.21875 -1.8125 L 1.453125 0 L -0.0625 0 L 3.484375 -7.859375 L 4.90625 -7.859375 L 8.453125 0 L 6.9375 0 Z M 5.671875 -2.96875 L 4.1875 -6.390625 L 2.71875 -2.96875 Z M 5.671875 -2.96875 "/></g></g></g><g fill="#efefef" fill-opacity="1"><g transform="translate(300.835754, 302.107187)"><g><path d="M 4.6875 0.109375 C 3.894531 0.109375 3.175781 -0.0625 2.53125 -0.40625 C 1.894531 -0.757812 1.394531 -1.238281 1.03125 -1.84375 C 0.675781 -2.457031 0.5 -3.148438 0.5 -3.921875 C 0.5 -4.691406 0.679688 -5.382812 1.046875 -6 C 1.410156 -6.613281 1.910156 -7.09375 2.546875 -7.4375 C 3.191406 -7.789062 3.910156 -7.96875 4.703125 -7.96875 C 5.347656 -7.96875 5.9375 -7.851562 6.46875 -7.625 C 7 -7.40625 7.445312 -7.082031 7.8125 -6.65625 L 6.859375 -5.765625 C 6.296875 -6.378906 5.597656 -6.6875 4.765625 -6.6875 C 4.222656 -6.6875 3.738281 -6.566406 3.3125 -6.328125 C 2.894531 -6.097656 2.566406 -5.769531 2.328125 -5.34375 C 2.085938 -4.925781 1.96875 -4.453125 1.96875 -3.921875 C 1.96875 -3.390625 2.085938 -2.914062 2.328125 -2.5 C 2.566406 -2.082031 2.894531 -1.753906 3.3125 -1.515625 C 3.738281 -1.285156 4.222656 -1.171875 4.765625 -1.171875 C 5.597656 -1.171875 6.296875 -1.476562 6.859375 -2.09375 L 7.8125 -1.203125 C 7.445312 -0.773438 6.992188 -0.445312 6.453125 -0.21875 C 5.921875 0 5.332031 0.109375 4.6875 0.109375 Z M 4.6875 0.109375 "/></g></g></g><g fill="#efefef" fill-opacity="1"><g transform="translate(312.524016, 302.107187)"><g><path d="M 1.046875 -7.859375 L 2.515625 -7.859375 L 2.515625 0 L 1.046875 0 Z M 1.046875 -7.859375 "/></g></g></g><g fill="#efefef" fill-opacity="1"><g transform="translate(319.641417, 302.107187)"><g><path d="M 4.71875 0.109375 C 3.914062 0.109375 3.191406 -0.0625 2.546875 -0.40625 C 1.910156 -0.757812 1.410156 -1.242188 1.046875 -1.859375 C 0.679688 -2.472656 0.5 -3.160156 0.5 -3.921875 C 0.5 -4.691406 0.679688 -5.382812 1.046875 -6 C 1.410156 -6.613281 1.910156 -7.09375 2.546875 -7.4375 C 3.191406 -7.789062 3.914062 -7.96875 4.71875 -7.96875 C 5.519531 -7.96875 6.242188 -7.789062 6.890625 -7.4375 C 7.535156 -7.09375 8.039062 -6.613281 8.40625 -6 C 8.769531 -5.382812 8.953125 -4.691406 8.953125 -3.921875 C 8.953125 -3.148438 8.769531 -2.457031 8.40625 -1.84375 C 8.039062 -1.238281 7.535156 -0.757812 6.890625 -0.40625 C 6.242188 -0.0625 5.519531 0.109375 4.71875 0.109375 Z M 4.71875 -1.171875 C 5.25 -1.171875 5.722656 -1.285156 6.140625 -1.515625 C 6.554688 -1.753906 6.882812 -2.082031 7.125 -2.5 C 7.363281 -2.925781 7.484375 -3.398438 7.484375 -3.921875 C 7.484375 -4.453125 7.363281 -4.925781 7.125 -5.34375 C 6.882812 -5.769531 6.554688 -6.097656 6.140625 -6.328125 C 5.722656 -6.566406 5.25 -6.6875 4.71875 -6.6875 C 4.195312 -6.6875 3.726562 -6.566406 3.3125 -6.328125 C 2.894531 -6.097656 2.566406 -5.769531 2.328125 -5.34375 C 2.085938 -4.925781 1.96875 -4.453125 1.96875 -3.921875 C 1.96875 -3.398438 2.085938 -2.925781 2.328125 -2.5 C 2.566406 -2.082031 2.894531 -1.753906 3.3125 -1.515625 C 3.726562 -1.285156 4.195312 -1.171875 4.71875 -1.171875 Z M 5.296875 -10.03125 L 6.953125 -10.03125 L 5 -8.5 L 3.78125 -8.5 Z M 5.296875 -10.03125 "/></g></g></g><g fill="#efefef" fill-opacity="1"><g transform="translate(332.618009, 302.107187)"><g><path d="M 8.03125 -7.859375 L 8.03125 0 L 6.828125 0 L 2.5 -5.3125 L 2.5 0 L 1.046875 0 L 1.046875 -7.859375 L 2.25 -7.859375 L 6.578125 -2.53125 L 6.578125 -7.859375 Z M 8.03125 -7.859375 "/></g></g></g></svg>